<svg width="225" height="183" viewBox="0 0 225 183" fill="none" xmlns="http://www.w3.org/2000/svg">
<path d="M138.649 104.41L2.55717 107.548L0.206055 5.59668L136.297 2.45827L138.649 104.41Z" fill="white"/>
<path d="M138.649 104.41L2.55717 107.548L0.206055 5.59668L136.297 2.45827L138.649 104.41ZM1.64141 6.96733L3.92782 106.113L137.213 103.039L134.927 3.89363L1.64141 6.96733Z" fill="#E6E6E6"/>
<path d="M69.9861 81.1083C84.2975 80.7783 95.6316 68.9091 95.3015 54.5977C94.9715 40.2864 83.1023 28.9523 68.7909 29.2823C54.4796 29.6123 43.1455 41.4815 43.4755 55.7929C43.8055 70.1043 55.6747 81.4384 69.9861 81.1083Z" fill="#206DC5"/>
<path d="M80.0986 52.7713L71.2882 52.9745L71.085 44.1641C71.0724 43.6142 70.8418 43.0919 70.444 42.7121C70.0463 42.3323 69.5139 42.126 68.9641 42.1387C68.4142 42.1514 67.8919 42.382 67.5121 42.7797C67.1323 43.1775 66.926 43.7099 66.9387 44.2597L67.1419 53.0701L58.3315 53.2733C57.7817 53.2859 57.2594 53.5165 56.8795 53.9143C56.4997 54.312 56.2934 54.8444 56.3061 55.3942V55.3942C56.3188 55.9441 56.5494 56.4664 56.9471 56.8462C57.3449 57.226 57.8773 57.4323 58.4271 57.4196L67.2375 57.2164L67.4407 66.0268C67.4534 66.5767 67.6839 67.0989 68.0817 67.4788C68.4795 67.8586 69.0118 68.0649 69.5617 68.0522V68.0522C70.1115 68.0395 70.6338 67.8089 71.0136 67.4112C71.3934 67.0134 71.5997 66.481 71.587 65.9312L71.3838 57.1208L80.1942 56.9176C80.7441 56.9049 81.2664 56.6744 81.6462 56.2766C82.026 55.8788 82.2323 55.3465 82.2196 54.7966V54.7966C82.2069 54.2468 81.9763 53.7245 81.5786 53.3447C81.1808 52.9649 80.6485 52.7586 80.0986 52.7713V52.7713Z" fill="white"/>
<path d="M165.935 145.509C167.037 134.601 173.531 123.728 183.823 119.949C179.99 131.239 180.274 143.521 184.625 154.622C186.319 158.897 188.647 163.476 187.248 167.856C186.378 170.582 184.143 172.703 181.622 174.055C179.1 175.408 176.283 176.09 173.501 176.758L172.961 177.226C168.292 167.306 164.833 156.418 165.935 145.509Z" fill="#D0D5DD"/>
<path d="M183.931 120.152C178.046 127.061 174.488 135.648 173.761 144.694C173.57 146.638 173.686 148.601 174.106 150.509C174.576 152.355 175.531 154.041 176.872 155.393C178.097 156.679 179.5 157.852 180.391 159.413C180.836 160.219 181.105 161.109 181.181 162.026C181.257 162.944 181.139 163.867 180.833 164.735C180.128 166.918 178.681 168.717 177.204 170.427C175.565 172.326 173.832 174.273 173.174 176.756C173.094 177.057 172.632 176.915 172.711 176.615C173.857 172.295 177.966 169.762 179.863 165.851C180.748 164.027 181.089 161.924 180.176 160.04C179.378 158.393 177.933 157.182 176.681 155.891C175.353 154.592 174.363 152.987 173.799 151.217C173.283 149.336 173.091 147.381 173.231 145.436C173.476 141.052 174.409 136.733 175.996 132.639C177.781 127.956 180.354 123.613 183.603 119.797C183.805 119.561 184.131 119.918 183.931 120.152L183.931 120.152Z" fill="white"/>
<path d="M173.822 141.767C172.321 141.439 170.985 140.588 170.054 139.366C169.122 138.144 168.655 136.631 168.736 135.096C168.754 134.786 169.237 134.799 169.219 135.109C169.141 136.538 169.576 137.948 170.446 139.084C171.316 140.22 172.564 141.007 173.963 141.305C174.267 141.37 174.125 141.831 173.822 141.767L173.822 141.767Z" fill="white"/>
<path d="M176.166 154.823C178.825 153.151 180.756 150.538 181.575 147.505C181.655 147.205 182.118 147.346 182.037 147.646C181.18 150.8 179.164 153.515 176.393 155.249C176.129 155.414 175.903 154.987 176.166 154.823L176.166 154.823Z" fill="white"/>
<path d="M178.24 128.403C178.795 128.651 179.402 128.757 180.007 128.713C180.613 128.668 181.198 128.473 181.71 128.147C181.972 127.978 182.198 128.406 181.937 128.573C181.37 128.932 180.724 129.146 180.055 129.196C179.386 129.247 178.714 129.134 178.099 128.865C178.039 128.845 177.989 128.802 177.959 128.746C177.929 128.69 177.922 128.625 177.939 128.564C177.958 128.503 178 128.452 178.056 128.421C178.113 128.391 178.179 128.385 178.24 128.403L178.24 128.403Z" fill="white"/>
<path d="M215.891 138.648C215.731 138.758 215.57 138.867 215.409 138.981C213.258 140.468 211.231 142.128 209.348 143.943C209.2 144.081 209.052 144.223 208.909 144.365C204.419 148.787 200.789 154.004 198.204 159.751C197.178 162.039 196.326 164.401 195.658 166.818C194.736 170.156 194.001 173.848 192.086 176.605C191.889 176.895 191.675 177.173 191.444 177.436L173.574 177.848C173.532 177.829 173.491 177.813 173.45 177.794L172.737 177.843C172.763 177.716 172.792 177.585 172.818 177.458C172.833 177.384 172.851 177.31 172.866 177.236C172.877 177.187 172.888 177.138 172.895 177.093C172.899 177.076 172.903 177.06 172.907 177.048C172.914 177.003 172.925 176.962 172.932 176.921C173.095 176.187 173.263 175.453 173.436 174.718C173.436 174.714 173.436 174.714 173.44 174.71C174.776 169.119 176.59 163.59 179.186 158.513C179.264 158.36 179.342 158.203 179.428 158.05C180.611 155.768 181.978 153.586 183.516 151.527C184.362 150.402 185.264 149.32 186.22 148.287C188.693 145.62 191.57 143.36 194.746 141.587C201.078 138.055 208.468 136.588 215.366 138.497C215.542 138.546 215.715 138.595 215.891 138.648Z" fill="#D0D5DD"/>
<path d="M215.859 138.876C207 140.848 198.989 145.562 192.962 152.347C191.639 153.785 190.55 155.422 189.737 157.198C189 158.955 188.748 160.876 189.005 162.763C189.209 164.527 189.623 166.308 189.395 168.092C189.264 169.003 188.943 169.876 188.452 170.654C187.96 171.432 187.31 172.098 186.543 172.607C184.666 173.925 182.427 174.491 180.218 174.967C177.766 175.497 175.21 176.007 173.19 177.593C172.945 177.786 172.661 177.395 172.906 177.203C176.421 174.443 181.227 174.894 185.096 172.914C186.902 171.99 188.44 170.517 188.845 168.463C189.199 166.667 188.775 164.831 188.552 163.046C188.274 161.209 188.451 159.332 189.065 157.578C189.786 155.766 190.809 154.09 192.092 152.621C194.928 149.268 198.273 146.382 202.005 144.068C206.25 141.403 210.919 139.485 215.81 138.395C216.113 138.327 216.159 138.809 215.859 138.876L215.859 138.876Z" fill="white"/>
<path d="M194.773 150.048C193.772 148.882 193.218 147.398 193.21 145.862C193.202 144.325 193.74 142.836 194.728 141.659C194.929 141.422 195.307 141.723 195.106 141.961C194.184 143.054 193.683 144.442 193.693 145.873C193.704 147.304 194.225 148.683 195.164 149.763C195.368 149.998 194.976 150.281 194.773 150.048L194.773 150.048Z" fill="white"/>
<path d="M188.784 161.883C191.913 162.149 195.028 161.225 197.508 159.296C197.753 159.105 198.037 159.496 197.792 159.687C195.208 161.689 191.965 162.644 188.708 162.36C188.398 162.333 188.475 161.856 188.784 161.883L188.784 161.883Z" fill="white"/>
<path d="M206.346 142.037C206.639 142.569 207.06 143.019 207.571 143.348C208.081 143.677 208.665 143.874 209.271 143.921C209.581 143.945 209.504 144.422 209.195 144.399C208.527 144.343 207.882 144.125 207.317 143.763C206.752 143.401 206.284 142.906 205.955 142.321C205.919 142.269 205.905 142.204 205.915 142.142C205.925 142.079 205.958 142.022 206.008 141.984C206.06 141.946 206.125 141.931 206.188 141.941C206.251 141.951 206.308 141.985 206.346 142.037V142.037Z" fill="white"/>
<path d="M106.951 91.9247C107.312 91.5341 107.583 91.0692 107.745 90.5626C107.906 90.0561 107.955 89.5202 107.887 88.9927C107.82 88.4652 107.637 87.959 107.353 87.5098C107.068 87.0605 106.689 86.679 106.241 86.3923L109.256 73.8222L102.941 76.11L101.045 87.696C100.613 88.4804 100.484 89.3958 100.682 90.269C100.88 91.1421 101.392 91.9123 102.12 92.4335C102.848 92.9548 103.742 93.1909 104.632 93.0971C105.522 93.0033 106.348 92.5862 106.951 91.9247L106.951 91.9247Z" fill="#9E616A"/>
<path d="M138.335 175.166L133.901 175.268L131.397 158.215L137.941 158.064L138.335 175.166Z" fill="#9E616A"/>
<path d="M139.564 179.438L125.268 179.767L125.264 179.586C125.23 178.11 125.784 176.681 126.803 175.614C127.823 174.546 129.224 173.927 130.7 173.893L130.701 173.893L139.432 173.692L139.564 179.438Z" fill="#2F2E41"/>
<path d="M117.36 175.65L112.926 175.752L110.423 158.699L116.966 158.549L117.36 175.65Z" fill="#9E616A"/>
<path d="M118.59 179.921L104.294 180.25L104.289 180.069C104.256 178.593 104.809 177.165 105.829 176.097C106.848 175.03 108.25 174.411 109.726 174.377L109.726 174.377L118.458 174.176L118.59 179.921Z" fill="#2F2E41"/>
<path d="M112.519 72.6669L110.828 73.1763C110.828 73.1763 107.046 102.102 107.035 117.299C107.024 132.497 109.354 170.798 109.354 170.798L118.757 170.581L124.85 105.31L129.968 170.322L140.094 170.089C140.094 170.089 145.359 84.5739 141.945 77.7777C138.532 70.9815 112.519 72.6669 112.519 72.6669Z" fill="#41367F"/>
<path d="M124.909 21.4945C129.601 21.3863 133.317 17.4947 133.209 12.8025C133.101 8.11021 129.209 4.39411 124.517 4.50231C119.825 4.61052 116.109 8.50207 116.217 13.1943C116.325 17.8866 120.217 21.6027 124.909 21.4945Z" fill="#9E616A"/>
<path d="M146.681 32.077L133.295 23.7631L119.642 24.6164L106.521 32.2795L112.235 60.371L110.44 76.6951C110.44 76.6951 129.919 74.0749 134.334 77.2296C136.913 79.1023 139.931 80.2789 143.097 80.6459L141.731 52.8159L146.681 32.077Z" fill="#2888F6"/>
<path d="M109.045 31.8591L107.672 31.6071L106.522 32.2792C106.522 32.2792 103.367 36.694 103.459 40.6721C103.55 44.6501 100.456 83.0763 100.456 83.0763L107.764 86.1643L112.858 56.0143L109.045 31.8591Z" fill="#3C1821"/>
<path d="M132.01 6.59843C132.01 6.59843 134.134 2.29913 129.236 2.02568C129.236 2.02568 124.982 -1.65884 120.805 1.52861C120.805 1.52861 118.488 1.58204 117.281 4.23335C117.281 4.23335 115.443 3.58422 115.085 5.44317C115.085 5.44317 113.84 9.33579 115.254 12.7807C116.668 16.2256 117.12 16.6016 117.12 16.6016C117.12 16.6016 114.76 9.36519 120.085 8.856C125.41 8.34682 131.301 4.87602 131.844 9.11381C132.386 13.3516 133.079 14.3829 133.079 14.3829C133.079 14.3829 137.161 8.2184 132.01 6.59843Z" fill="#1E0C10"/>
<path d="M191.121 178.3L151.796 179.207L151.112 149.532L190.437 148.625L191.121 178.3Z" fill="white"/>
<path d="M191.121 178.3L151.796 179.207L151.112 149.532L190.437 148.625L191.121 178.3ZM152.503 178.467L190.381 177.593L189.73 149.365L151.852 150.239L152.503 178.467Z" fill="#E6E6E6"/>
<path d="M185.437 156.827L156.486 157.495L156.53 159.425L185.481 158.758L185.437 156.827Z" fill="#E4E4E4"/>
<path d="M185.571 162.618L156.62 163.285L156.664 165.215L185.615 164.548L185.571 162.618Z" fill="#E4E4E4"/>
<path d="M185.704 168.408L156.753 169.075L156.797 171.005L185.749 170.338L185.704 168.408Z" fill="#E4E4E4"/>
<path d="M166.011 125.604L136.035 100.135L155.254 77.5147L185.231 102.984L166.011 125.604Z" fill="white"/>
<path d="M166.011 125.604L136.035 100.135L155.254 77.5147L185.231 102.984L166.011 125.604ZM137.055 100.052L165.928 124.584L184.211 103.067L155.337 78.5345L137.055 100.052Z" fill="#E6E6E6"/>
<path d="M153.974 87.0356L152.724 88.5068L174.792 107.258L176.042 105.786L153.974 87.0356Z" fill="#EAECF0"/>
<path d="M150.224 91.4487L148.974 92.9199L171.043 111.671L172.293 110.199L150.224 91.4487Z" fill="#EAECF0"/>
<path d="M146.473 95.8627L145.223 97.334L167.291 116.085L168.541 114.614L146.473 95.8627Z" fill="#EAECF0"/>
<path d="M224.223 177.875L2.91409 182.978C2.76885 182.981 2.62865 182.939 2.52425 182.861C2.41984 182.782 2.35973 182.674 2.3571 182.56C2.35447 182.446 2.40954 182.336 2.51022 182.253C2.61091 182.17 2.749 182.121 2.89423 182.117L224.203 177.014C224.349 177.01 224.49 177.052 224.594 177.131C224.699 177.209 224.759 177.317 224.762 177.432C224.765 177.546 224.709 177.657 224.608 177.74C224.507 177.823 224.369 177.871 224.223 177.875Z" fill="#CACACA"/>
<path d="M143.538 90.8085C143.268 90.3502 143.102 89.8383 143.051 89.3089C143.001 88.7796 143.067 88.2455 143.245 87.7445C143.424 87.2435 143.71 86.7876 144.083 86.409C144.456 86.0304 144.908 85.7383 145.407 85.5533L145.131 72.6295L150.816 76.2069L150.207 87.9311C150.462 88.7893 150.394 89.7113 150.015 90.5224C149.636 91.3336 148.972 91.9775 148.15 92.3322C147.328 92.6868 146.405 92.7276 145.554 92.4468C144.704 92.166 143.987 91.5831 143.538 90.8085L143.538 90.8085Z" fill="#9E616A"/>
<path d="M142.736 33.6148L145.182 31.1456L147.05 32.4298C147.05 32.4298 148.909 34.5579 150.505 41.0342C152.102 47.5104 151.481 83.3467 151.481 83.3467L143.5 82.4452L144.151 63.6146L140.529 47.7773L142.736 33.6148Z" fill="#3C1821"/>
</svg>
