<svg width="319" height="280" viewBox="0 0 319 280" fill="none" xmlns="http://www.w3.org/2000/svg">
<path fill-rule="evenodd" clip-rule="evenodd" d="M140.306 54.5136C165.559 44.185 191.348 45.6095 216.04 50.5806C239.951 55.3945 261.982 64.0147 275.565 81.7443C290.903 101.765 304.776 126.892 294.255 152.674C283.907 178.032 252.365 189.834 226.062 203.047C202.347 214.961 178.59 222.753 153.203 223.535C118.172 224.613 75.5322 232.521 56.414 208.271C36.6963 183.261 48.2587 143.635 65.4171 112.187C80.3411 84.8344 109.994 66.9116 140.306 54.5136Z" fill="#EAF3FE"/>
<path d="M242.283 73.5664H104.035C103.294 73.5664 102.693 74.1149 102.693 74.7916V243.863C102.693 244.54 103.294 245.089 104.035 245.089H242.283C243.024 245.089 243.625 244.54 243.625 243.863V74.7916C243.625 74.1149 243.024 73.5664 242.283 73.5664Z" fill="#F2F4F7"/>
<path d="M243.86 245.087H103.349C102.987 245.086 102.64 244.957 102.385 244.727C102.129 244.497 101.985 244.185 101.984 243.859V74.427C101.985 74.1015 102.129 73.7894 102.385 73.5592C102.64 73.3291 102.987 73.1996 103.349 73.1992H243.86C244.222 73.1996 244.568 73.3291 244.824 73.5592C245.08 73.7894 245.224 74.1015 245.224 74.427V243.859C245.224 244.185 245.08 244.497 244.824 244.727C244.568 244.957 244.222 245.086 243.86 245.087ZM103.349 73.8131C103.168 73.8133 102.994 73.878 102.867 73.9931C102.739 74.1082 102.667 74.2642 102.667 74.427V243.859C102.667 244.022 102.739 244.178 102.867 244.293C102.994 244.408 103.168 244.473 103.349 244.473H243.86C244.041 244.473 244.214 244.408 244.342 244.293C244.47 244.178 244.542 244.022 244.542 243.859V74.427C244.542 74.2642 244.47 74.1082 244.342 73.9931C244.214 73.878 244.041 73.8133 243.86 73.8131H103.349Z" fill="#D0D5DD"/>
<path d="M122.865 128.634C122.804 128.848 122.759 129.066 122.732 129.287L104.943 138.266L100.889 135.62L96.0972 141.217L102.819 146.598C103.362 147.032 104.031 147.279 104.727 147.301C105.422 147.323 106.105 147.119 106.675 146.719L125.229 133.693C126.014 134.034 126.885 134.129 127.725 133.964C128.566 133.798 129.336 133.381 129.933 132.767C130.531 132.154 130.927 131.373 131.07 130.528C131.213 129.684 131.095 128.816 130.732 128.04C130.37 127.264 129.779 126.616 129.04 126.184C128.301 125.752 127.447 125.555 126.593 125.619C125.739 125.684 124.925 126.007 124.259 126.546C123.593 127.084 123.107 127.813 122.865 128.634L122.865 128.634Z" fill="#C08B97"/>
<path d="M104.362 138.603L98.4654 145.575C98.2976 145.774 98.089 145.933 97.8539 146.044C97.6187 146.154 97.3625 146.213 97.1027 146.216C96.8429 146.218 96.5856 146.165 96.3483 146.059C96.111 145.953 95.8993 145.797 95.7276 145.602L89.7128 138.768C88.7022 137.904 88.0756 136.674 87.9704 135.349C87.8651 134.023 88.2899 132.71 89.1515 131.697C90.0131 130.685 91.2412 130.055 92.5664 129.946C93.8916 129.838 95.2058 130.26 96.2206 131.119L103.935 135.898C104.155 136.035 104.344 136.218 104.488 136.435C104.632 136.651 104.727 136.896 104.768 137.153C104.808 137.409 104.793 137.672 104.723 137.922C104.653 138.172 104.53 138.404 104.362 138.603L104.362 138.603Z" fill="#6C63FF"/>
<path d="M82.1557 240.809H86.3408L88.3317 224.666H82.155L82.1557 240.809Z" fill="#C08B97"/>
<path d="M81.0881 239.442L89.3301 239.441H89.3304C90.7234 239.441 92.0594 239.995 93.0444 240.98C94.0294 241.965 94.5828 243.301 94.5829 244.694V244.864L81.0883 244.865L81.0881 239.442Z" fill="#101828"/>
<path d="M81.2161 195.858L82.4061 199.87L98.4487 197.189L96.6921 191.268L81.2161 195.858Z" fill="#D5B1BA"/>
<path d="M82.2204 194.447L84.5642 202.349L84.5643 202.349C84.9602 203.685 84.8095 205.123 84.1453 206.347C83.481 207.572 82.3575 208.482 81.0221 208.878L80.8584 208.927L77.0211 195.989L82.2204 194.447Z" fill="#2F2E41"/>
<path d="M223.364 96.726H123.002C122.323 96.726 121.672 96.4563 121.192 95.9761C120.712 95.496 120.442 94.8448 120.442 94.1657C120.442 93.4867 120.712 92.8355 121.192 92.3554C121.672 91.8752 122.323 91.6055 123.002 91.6055H223.364C224.044 91.6055 224.695 91.8752 225.175 92.3554C225.655 92.8355 225.925 93.4867 225.925 94.1657C225.925 94.8448 225.655 95.496 225.175 95.9761C224.695 96.4563 224.044 96.726 223.364 96.726Z" fill="#D0D5DD"/>
<path d="M223.364 113.285H123.002C122.323 113.285 121.672 113.015 121.192 112.535C120.712 112.055 120.442 111.403 120.442 110.724C120.442 110.045 120.712 109.394 121.192 108.914C121.672 108.434 122.323 108.164 123.002 108.164H223.364C224.044 108.164 224.695 108.434 225.175 108.914C225.655 109.394 225.925 110.045 225.925 110.724C225.925 111.403 225.655 112.055 225.175 112.535C224.695 113.015 224.044 113.285 223.364 113.285Z" fill="#D0D5DD"/>
<path d="M223.364 129.843H123.002C122.323 129.843 121.672 129.573 121.192 129.093C120.712 128.613 120.442 127.962 120.442 127.283C120.442 126.604 120.712 125.953 121.192 125.473C121.672 124.992 122.323 124.723 123.002 124.723H223.364C224.044 124.723 224.695 124.992 225.175 125.473C225.655 125.953 225.925 126.604 225.925 127.283C225.925 127.962 225.655 128.613 225.175 129.093C224.695 129.573 224.044 129.843 223.364 129.843Z" fill="#D0D5DD"/>
<path d="M223.364 146.4H123.002C122.323 146.4 121.672 146.13 121.192 145.65C120.712 145.17 120.442 144.519 120.442 143.84C120.442 143.161 120.712 142.509 121.192 142.029C121.672 141.549 122.323 141.279 123.002 141.279H223.364C224.044 141.279 224.695 141.549 225.175 142.029C225.655 142.509 225.925 143.161 225.925 143.84C225.925 144.519 225.655 145.17 225.175 145.65C224.695 146.13 224.044 146.4 223.364 146.4Z" fill="#D0D5DD"/>
<path d="M223.364 162.951H123.002C122.323 162.951 121.672 162.681 121.192 162.201C120.712 161.721 120.442 161.069 120.442 160.39C120.442 159.711 120.712 159.06 121.192 158.58C121.672 158.1 122.323 157.83 123.002 157.83H223.364C224.044 157.83 224.695 158.1 225.175 158.58C225.655 159.06 225.925 159.711 225.925 160.39C225.925 161.069 225.655 161.721 225.175 162.201C224.695 162.681 224.044 162.951 223.364 162.951Z" fill="#D0D5DD"/>
<path d="M224.226 200.181H157.643C156.704 200.181 155.944 199.035 155.944 197.621C155.944 196.207 156.704 195.061 157.643 195.061H224.226C225.164 195.061 225.925 196.207 225.925 197.621C225.925 199.035 225.164 200.181 224.226 200.181Z" fill="#D0D5DD"/>
<path d="M224.226 214.861H157.643C156.704 214.861 155.944 213.714 155.944 212.3C155.944 210.887 156.704 209.74 157.643 209.74H224.226C225.164 209.74 225.925 210.887 225.925 212.3C225.925 213.714 225.164 214.861 224.226 214.861Z" fill="#D0D5DD"/>
<path d="M229.261 126.772C249.082 126.772 265.15 110.705 265.15 90.8843C265.15 71.0638 249.082 54.9961 229.261 54.9961C209.441 54.9961 193.373 71.0638 193.373 90.8843C193.373 110.705 209.441 126.772 229.261 126.772Z" fill="#206DC5"/>
<path d="M214.305 88.5139C213.677 88.5139 213.075 88.7634 212.631 89.2076C212.187 89.6517 211.937 90.2541 211.937 90.8822C211.937 91.5103 212.187 92.1127 212.631 92.5569C213.075 93.001 213.677 93.2505 214.305 93.2505H226.891V105.835C226.892 106.462 227.142 107.063 227.586 107.506C228.03 107.949 228.632 108.198 229.259 108.198C229.886 108.198 230.487 107.949 230.931 107.506C231.375 107.063 231.625 106.462 231.627 105.835V93.2505H244.212C244.84 93.2505 245.443 93.001 245.887 92.5569C246.331 92.1127 246.58 91.5103 246.58 90.8822C246.58 90.2541 246.331 89.6517 245.887 89.2076C245.443 88.7634 244.84 88.5139 244.212 88.5139H231.627V75.9286C231.627 75.3005 231.377 74.6982 230.933 74.2541C230.489 73.81 229.887 73.5605 229.259 73.5605C228.631 73.5605 228.028 73.81 227.584 74.2541C227.14 74.6982 226.891 75.3005 226.891 75.9286V88.5139H214.305Z" fill="white"/>
<path d="M124.45 187.604C123.846 188.61 122.993 189.445 121.974 190.027C120.954 190.609 119.802 190.92 118.628 190.929L93.4747 198.981L92.3246 192.311L107.555 184.047L92.7991 173.419L103.61 160.768L123.246 179.069C124.394 180.139 125.139 181.57 125.358 183.123C125.577 184.677 125.257 186.258 124.45 187.604Z" fill="#5A2531"/>
<path d="M87.9689 233.22H81.7584C76.1821 194.997 70.5062 156.668 87.279 142.361L107.061 145.582L104.531 162.373L93.4898 175.024L87.9689 233.22Z" fill="#5A2531"/>
<path d="M105.853 152.505C97.4803 158.211 86.6649 156.869 82.1507 148.368C88.6367 137.444 90.0022 129.593 84.781 126.008C83.9443 123.025 84.2565 119.836 85.6561 117.072C87.0556 114.307 89.4408 112.168 92.3406 111.076L102.231 115.217C110.629 122.062 112.283 129.478 109.132 137.299L105.853 152.505Z" fill="#206DC5"/>
<path d="M276.167 244.408H0V245.091H276.167V244.408Z" fill="#D0D5DD"/>
<path d="M47.7612 228.839C49.0313 229.286 50.3949 229.398 51.7208 229.164C53.0466 228.931 54.29 228.359 55.3311 227.506C57.9825 225.281 58.813 221.614 59.49 218.221L61.4904 208.18L57.3025 211.063C54.2906 213.137 51.2104 215.277 49.125 218.281C47.0396 221.285 46.1291 225.386 47.8049 228.637" fill="#41367F"/>
<path d="M48.4089 241.698C47.8805 237.857 47.3394 233.967 47.7098 230.085C48.0382 226.637 49.09 223.27 51.2314 220.509C52.368 219.046 53.751 217.793 55.3182 216.806C55.7279 216.548 56.1034 217.196 55.6961 217.452C52.9843 219.166 50.8869 221.697 49.7061 224.68C48.4021 227.997 48.1925 231.613 48.4175 235.136C48.554 237.267 48.8414 239.384 49.1316 241.499C49.1545 241.594 49.1403 241.695 49.0917 241.78C49.0432 241.866 48.964 241.93 48.8701 241.959C48.7744 241.985 48.6722 241.972 48.5859 241.923C48.4996 241.874 48.4363 241.793 48.4096 241.698H48.4089Z" fill="#41367F"/>
<path d="M14.8127 235.962C15.4596 236.726 16.2924 237.31 17.2308 237.659C18.1692 238.008 19.1816 238.109 20.1705 237.953C22.7083 237.523 24.6206 235.483 26.3312 233.56L31.392 227.871L27.6202 228.146C24.908 228.344 22.1269 228.558 19.6591 229.701C17.1914 230.844 15.065 233.132 14.9175 235.848" fill="#41367F"/>
<path d="M10.4713 243.892C11.3606 241.752 12.2574 239.581 13.6218 237.691C14.7923 235.978 16.4263 234.635 18.3327 233.817C19.3612 233.406 20.4535 233.178 21.5604 233.143C21.8492 233.133 21.8474 233.581 21.5604 233.591C19.6434 233.655 17.7962 234.326 16.2852 235.507C14.6094 236.824 13.4081 238.625 12.4585 240.51C11.8843 241.651 11.3927 242.83 10.9032 244.008C10.8861 244.064 10.8484 244.111 10.7978 244.141C10.7471 244.17 10.6872 244.179 10.6301 244.166C10.5729 244.151 10.5241 244.113 10.4944 244.062C10.4647 244.01 10.4564 243.949 10.4713 243.892Z" fill="#41367F"/>
<path d="M52.2052 235.532C52.7499 236.36 53.4987 237.033 54.3793 237.488C55.26 237.942 56.2429 238.162 57.2332 238.126C59.7784 238.005 61.9004 236.229 63.8103 234.542L69.46 229.554L65.721 229.375C63.032 229.246 60.2738 229.126 57.7125 229.955C55.1512 230.784 52.7893 232.78 52.3209 235.431" fill="#41367F"/>
<path d="M46.92 243.898C49.4577 239.407 52.4017 234.417 57.6615 232.821C59.124 232.379 60.6575 232.221 62.1795 232.355C62.6591 232.396 62.5393 233.135 62.0607 233.094C59.5095 232.882 56.9633 233.556 54.8506 235.002C52.8178 236.386 51.2349 238.309 49.895 240.349C49.0757 241.599 48.3394 242.902 47.6041 244.203C47.3692 244.619 46.6824 244.319 46.92 243.898Z" fill="#41367F"/>
<path d="M264.967 236.907C263.987 237.252 262.935 237.338 261.912 237.158C260.889 236.978 259.929 236.537 259.126 235.878C257.08 234.161 256.438 231.332 255.917 228.712L254.373 220.963L257.605 223.189C259.93 224.789 262.307 226.441 263.916 228.759C265.525 231.077 266.228 234.242 264.935 236.75" fill="#41367F"/>
<path d="M264.077 244.261C264.362 242.19 264.654 240.092 264.454 237.999C264.325 236.133 263.666 234.342 262.555 232.836C261.942 232.047 261.197 231.371 260.352 230.839C260.131 230.7 259.928 231.049 260.147 231.187C261.609 232.111 262.74 233.476 263.377 235.085C264.08 236.873 264.193 238.823 264.072 240.723C263.998 241.872 263.843 243.014 263.687 244.153C263.674 244.205 263.682 244.259 263.708 244.305C263.734 244.351 263.777 244.386 263.828 244.402C263.879 244.415 263.934 244.408 263.981 244.382C264.027 244.355 264.061 244.312 264.076 244.261L264.077 244.261Z" fill="#41367F"/>
<path d="M74.9465 159.253C75.4687 159.132 75.958 158.897 76.3799 158.567C76.8017 158.236 77.1459 157.817 77.3882 157.338C77.6305 156.86 77.765 156.334 77.7822 155.799C77.7994 155.263 77.6989 154.73 77.4878 154.237L91.0068 123.694L83.2733 121.746L72.4163 152.381C71.6119 152.791 70.9857 153.481 70.6564 154.322C70.327 155.162 70.3173 156.094 70.6292 156.941C70.9411 157.788 71.5528 158.491 72.3485 158.917C73.1442 159.343 74.0686 159.463 74.9465 159.253V159.253Z" fill="#C08B97"/>
<path d="M89.177 129.152L81.6555 125.632C81.4414 125.531 81.2515 125.386 81.0987 125.206C80.9458 125.026 80.8336 124.815 80.7696 124.587C80.7057 124.36 80.6915 124.121 80.7281 123.888C80.7646 123.654 80.8511 123.432 80.9815 123.235L85.5526 116.331C86.0718 115.24 87.0024 114.399 88.1405 113.993C89.2785 113.586 90.5313 113.647 91.6243 114.163C92.7173 114.678 93.5614 115.606 93.9717 116.743C94.3819 117.88 94.3249 119.133 93.813 120.227L91.4493 128.134C91.3816 128.361 91.2658 128.57 91.11 128.748C90.9541 128.925 90.7618 129.067 90.5462 129.164C90.3305 129.26 90.0966 129.309 89.8603 129.307C89.624 129.305 89.391 129.252 89.177 129.152H89.177Z" fill="#206DC5"/>
<path d="M105.859 108.828H86.0597C85.6524 108.828 85.2619 108.666 84.9739 108.378C84.686 108.09 84.524 107.7 84.5235 107.292V98.7581C84.5235 95.7251 85.7283 92.8164 87.873 90.6717C90.0176 88.5271 92.9264 87.3223 95.9593 87.3223C98.9923 87.3223 101.901 88.5271 104.046 90.6717C106.19 92.8164 107.395 95.7251 107.395 98.7581V107.292C107.395 107.7 107.233 108.09 106.945 108.378C106.657 108.666 106.266 108.828 105.859 108.828Z" fill="#101828"/>
<path d="M98.78 108.7C103.411 108.7 107.164 104.947 107.164 100.316C107.164 95.6854 103.411 91.9316 98.78 91.9316C94.1495 91.9316 90.3957 95.6854 90.3957 100.316C90.3957 104.947 94.1495 108.7 98.78 108.7Z" fill="#C08B97"/>
<path d="M110.101 99.6134H97.9943L97.8701 97.8752L97.2494 99.6134H95.3852L95.1392 96.1684L93.9089 99.6134H90.3018V99.4427C90.3044 97.0444 91.2584 94.745 92.9543 93.0491C94.6502 91.3532 96.9496 90.3992 99.3479 90.3965H101.055C103.453 90.3992 105.753 91.3532 107.449 93.0491C109.144 94.745 110.098 97.0444 110.101 99.4427V99.6134Z" fill="#101828"/>
</svg>
