<svg width="274" height="274" viewBox="0 0 274 274" fill="none" xmlns="http://www.w3.org/2000/svg">
<path fill-rule="evenodd" clip-rule="evenodd" d="M49.3104 0.823242C22.42 0.823242 0.621094 22.6222 0.621094 49.5125V225.31C0.621094 252.201 22.42 274 49.3104 274H225.108C251.999 274 273.798 252.201 273.798 225.31V49.5125C273.798 22.6222 251.999 0.823242 225.108 0.823242H49.3104ZM208.384 113.788C217.66 113.788 225.18 105.695 225.18 95.712C225.18 85.729 217.66 77.6361 208.384 77.6361C199.108 77.6361 191.588 85.729 191.588 95.712C191.588 105.695 199.108 113.788 208.384 113.788ZM199.974 213.097C198.616 213.097 197.461 212.631 196.51 211.699C196.155 211.351 195.38 210.976 194.548 210.573C193.149 209.895 191.588 209.139 191.588 208.304L194.268 125.024C194.268 123.937 194.585 123.648 195.219 123.072C195.362 122.942 195.52 122.798 195.695 122.627C196.646 121.695 197.189 121.629 198.548 121.629H217.092C218.586 121.629 219.945 121.695 220.76 122.627C221.711 123.559 221.779 123.692 221.779 125.024L225.18 208.304C225.18 209.142 223.645 209.9 222.27 210.58C221.46 210.981 220.705 211.353 220.352 211.699C219.537 212.631 218.383 213.097 216.888 213.097H199.974ZM52.786 85.5436C62.0624 85.5436 69.5824 77.4507 69.5824 67.4677C69.5824 57.4847 62.0624 49.3918 52.786 49.3918C43.5097 49.3918 35.9897 57.4847 35.9897 67.4677C35.9897 77.4507 43.5097 85.5436 52.786 85.5436ZM177.08 71.3872C177.08 81.3702 169.56 89.4631 160.283 89.4631C151.007 89.4631 143.487 81.3702 143.487 71.3872C143.487 61.4042 151.007 53.3113 160.283 53.3113C169.56 53.3113 177.08 61.4042 177.08 71.3872ZM42.3147 213.162C42.0747 213.162 41.4029 213.032 40.635 212.509C39.6752 211.856 36.796 209.024 36.0761 207.282C35.8404 206.712 36.1193 196.245 36.5309 180.794C37.125 158.498 37.9956 125.821 37.9956 97.5202L38.7154 95.9957L39.4353 94.9068L40.635 94.0357L42.3147 93.1646H66.3095L68.2291 93.6001L69.1889 94.2535L70.3886 95.5602L70.8685 95.9957L71.3484 97.5202C71.3484 97.5202 73.4218 113.854 72.9419 120.823C72.462 127.792 142.133 130.405 142.133 130.405L141.653 97.5202L142.373 96.2135L143.093 95.1246L144.293 94.0357L145.732 93.3824L147.652 93.1646H169.727L171.407 93.3824L172.607 94.0357L173.806 94.9068L174.766 96.2135L175.246 97.5202L177.166 205.758L176.206 208.807L174.046 211.42L172.607 212.509L171.407 212.945L170.447 213.162H147.412L146.212 212.945L145.013 212.509L144.053 211.856L143.093 210.984L142.613 210.113L140.934 208.807L139.974 205.758L142.133 149.57C113.814 142.957 98.2809 142.702 71.3484 149.57C71.3484 161.137 71.6484 169.781 71.9483 178.426C72.2482 187.071 72.5482 195.716 72.5482 207.282L71.1085 209.678L70.6286 210.549L69.1889 212.291L68.2291 212.727L66.7894 213.162H42.3147Z" fill="white"/>
</svg>
