<svg width="66" height="66" viewBox="0 0 66 66" fill="none" xmlns="http://www.w3.org/2000/svg">
<path d="M5 33C5 17.536 17.536 5 33 5C48.464 5 61 17.536 61 33C61 48.464 48.464 61 33 61C17.536 61 5 48.464 5 33Z" fill="#D4E7FD"/>
<path d="M44.6667 26C44.6667 24.7167 43.6167 23.6667 42.3334 23.6667H23.6667C22.3834 23.6667 21.3334 24.7167 21.3334 26M44.6667 26V40C44.6667 41.2833 43.6167 42.3333 42.3334 42.3333H23.6667C22.3834 42.3333 21.3334 41.2833 21.3334 40V26M44.6667 26L33 34.1667L21.3334 26" stroke="#206DC5" stroke-width="2.33333" stroke-linecap="round" stroke-linejoin="round"/>
<path d="M33 56C20.2975 56 10 45.7025 10 33H0C0 51.2254 14.7746 66 33 66V56ZM56 33C56 45.7025 45.7025 56 33 56V66C51.2254 66 66 51.2254 66 33H56ZM33 10C45.7025 10 56 20.2975 56 33H66C66 14.7746 51.2254 0 33 0V10ZM33 0C14.7746 0 0 14.7746 0 33H10C10 20.2975 20.2975 10 33 10V0Z" fill="#EAF3FE"/>
</svg>
