<svg width="232" height="100" viewBox="0 0 232 100" fill="none" xmlns="http://www.w3.org/2000/svg">
<path fill-rule="evenodd" clip-rule="evenodd" d="M14 0C6.26801 0 0 6.26801 0 14V86C0 93.732 6.26801 100 14 100H217.792C225.524 100 231.792 93.732 231.792 86V14C231.792 6.26801 225.524 0 217.792 0H14ZM76.8786 38.921C80.6031 38.921 83.6223 35.341 83.6223 30.9249C83.6223 26.5087 80.6031 22.9287 76.8786 22.9287C73.1541 22.9287 70.1349 26.5087 70.1349 30.9249C70.1349 35.341 73.1541 38.921 76.8786 38.921ZM136.109 82.6747C130.012 82.6747 125.177 80.9432 121.606 77.4802C118.036 74.0172 116.113 69.0934 115.838 62.7085C115.783 62.1674 115.756 61.4911 115.756 60.6794C115.756 59.8137 115.783 59.1373 115.838 58.6503C116.058 54.5381 116.992 51.021 118.64 48.0991C120.343 45.1231 122.678 42.8505 125.644 41.2814C128.611 39.6581 132.099 38.8465 136.109 38.8465C140.559 38.8465 144.295 39.7663 147.316 41.606C150.338 43.3916 152.617 45.9077 154.156 49.1542C155.694 52.3466 156.463 56.0531 156.463 60.2736V61.978C156.463 62.5191 156.271 62.979 155.886 63.3578C155.501 63.7366 155.007 63.9259 154.403 63.9259H127.045V64.1694V64.5752C127.1 66.4691 127.457 68.2276 128.116 69.8509C128.83 71.42 129.847 72.6916 131.165 73.6655C132.539 74.6395 134.159 75.1265 136.027 75.1265C137.565 75.1265 138.856 74.91 139.9 74.4772C140.944 73.9902 141.795 73.4491 142.454 72.8539C143.114 72.2587 143.581 71.7717 143.855 71.393C144.35 70.7437 144.734 70.3649 145.009 70.2567C145.338 70.0944 145.805 70.0132 146.41 70.0132H153.496C154.046 70.0132 154.485 70.1755 154.815 70.5002C155.199 70.8248 155.364 71.2306 155.309 71.7176C155.254 72.5834 154.787 73.6385 153.908 74.883C153.084 76.1275 151.876 77.3449 150.283 78.5353C148.689 79.7257 146.684 80.7267 144.267 81.5384C141.905 82.2959 139.186 82.6747 136.109 82.6747ZM127.045 57.1082H145.256V56.8647C145.256 54.7545 144.899 52.9148 144.185 51.3456C143.471 49.7224 142.427 48.4779 141.053 47.6121C139.68 46.6923 138.032 46.2323 136.109 46.2323C134.187 46.2323 132.539 46.6923 131.165 47.6121C129.792 48.4779 128.748 49.7224 128.034 51.3456C127.375 52.9148 127.045 54.7545 127.045 56.8647V57.1082ZM88.6855 82.6747C88.1362 82.6747 87.6692 82.4853 87.2847 82.1065C86.9001 81.7278 86.7078 81.2678 86.7078 80.7267V42.4988C86.7078 41.9036 86.9001 41.4167 87.2847 41.0379C87.6692 40.6591 88.1362 40.4697 88.6855 40.4697H95.3601C95.9095 40.4697 96.3764 40.6591 96.761 41.0379C97.2005 41.4167 97.4202 41.9036 97.4202 42.4988V45.8265C98.6837 44.095 100.304 42.7694 102.282 41.8495C104.315 40.9297 106.649 40.4697 109.286 40.4697H112.665C113.269 40.4697 113.736 40.6591 114.066 41.0379C114.45 41.4167 114.642 41.8766 114.642 42.4177V48.2614C114.642 48.8025 114.45 49.2624 114.066 49.6412C113.736 50.02 113.269 50.2094 112.665 50.2094H106.237C103.6 50.2094 101.54 50.9398 100.057 52.4008C98.6288 53.8076 97.9146 55.8096 97.9146 58.4068V80.7267C97.9146 81.2678 97.7223 81.7278 97.3378 82.1065C96.9533 82.4853 96.4588 82.6747 95.8545 82.6747H88.6855ZM173.661 73.2177C173.931 73.4875 174.258 73.6224 174.644 73.6224H177.996C178.42 73.6224 178.748 73.4875 178.979 73.2177C179.249 72.948 179.383 72.6204 179.383 72.2351V60.9634H190.482C190.867 60.9634 191.195 60.8285 191.464 60.5588C191.734 60.289 191.869 59.9422 191.869 59.5183V56.5125C191.869 56.0886 191.734 55.7611 191.464 55.5299C191.195 55.2601 190.867 55.1252 190.482 55.1252H179.383V44.1426C179.383 43.7572 179.249 43.4297 178.979 43.1599C178.748 42.8902 178.42 42.7553 177.996 42.7553H174.644C174.258 42.7553 173.931 42.8902 173.661 43.1599C173.391 43.4297 173.256 43.7572 173.256 44.1426V55.1252H162.158C161.773 55.1252 161.445 55.2601 161.175 55.5299C160.906 55.7611 160.771 56.0886 160.771 56.5125V59.5183C160.771 59.9422 160.906 60.289 161.175 60.5588C161.445 60.8285 161.773 60.9634 162.158 60.9634H173.256V72.2351C173.256 72.6204 173.391 72.948 173.661 73.2177ZM209.167 73.2177C209.437 73.4875 209.764 73.6224 210.15 73.6224H213.502C213.926 73.6224 214.254 73.4875 214.485 73.2177C214.755 72.948 214.89 72.6204 214.89 72.2351V60.9634H225.988C226.373 60.9634 226.701 60.8285 226.971 60.5588C227.24 60.289 227.375 59.9422 227.375 59.5183V56.5125C227.375 56.0886 227.24 55.7611 226.971 55.5299C226.701 55.2601 226.373 55.1252 225.988 55.1252H214.89V44.1426C214.89 43.7572 214.755 43.4297 214.485 43.1599C214.254 42.8902 213.926 42.7553 213.502 42.7553H210.15C209.764 42.7553 209.437 42.8902 209.167 43.1599C208.897 43.4297 208.762 43.7572 208.762 44.1426V55.1252H197.664C197.279 55.1252 196.951 55.2601 196.682 55.5299C196.412 55.7611 196.277 56.0886 196.277 56.5125V59.5183C196.277 59.9422 196.412 60.289 196.682 60.5588C196.951 60.8285 197.279 60.9634 197.664 60.9634H208.762V72.2351C208.762 72.6204 208.897 72.948 209.167 73.2177ZM23.6994 18.4008C23.6994 22.8169 20.6801 26.3969 16.9557 26.3969C13.2312 26.3969 10.2119 22.8169 10.2119 18.4008C10.2119 13.9846 13.2312 10.4046 16.9557 10.4046C20.6801 10.4046 23.6994 13.9846 23.6994 18.4008ZM60.1156 28.131C63.8401 28.131 66.8593 24.551 66.8593 20.1349C66.8593 15.7187 63.8401 12.1387 60.1156 12.1387C56.3911 12.1387 53.3719 15.7187 53.3719 20.1349C53.3719 24.551 56.3911 28.131 60.1156 28.131ZM73.5021 82.8516C72.9566 82.8516 72.493 82.6455 72.1112 82.2332C71.9688 82.0794 71.6576 81.9133 71.3234 81.735C70.7617 81.4351 70.1349 81.1006 70.1349 80.7313L71.2112 43.8911C71.2112 43.4102 71.3385 43.2827 71.593 43.0277C71.6502 42.9704 71.7138 42.9066 71.7839 42.8309C72.1657 42.4187 72.3839 42.3892 72.9294 42.3892H80.3748C80.9748 42.3892 81.5203 42.4187 81.8476 42.8309C82.2294 43.2432 82.2567 43.3021 82.2567 43.8911L83.6223 80.7313C83.6223 81.102 83.0059 81.4376 82.4537 81.7383C82.1285 81.9154 81.8255 82.0804 81.6839 82.2332C81.3567 82.6455 80.893 82.8516 80.293 82.8516H73.5021ZM22.4816 82.8516H12.7514C12.655 82.8516 12.3853 82.7938 12.077 82.5626C11.6916 82.2736 10.5356 81.0212 10.2466 80.2505C10.1519 79.9981 10.2639 75.3682 10.4292 68.5332C10.6677 58.6699 11.0173 44.2147 11.0173 31.6956L11.3063 31.0212L11.5953 30.5395L12.077 30.1541L12.7514 29.7688H22.3853L23.156 29.9615L23.5413 30.2505L24.023 30.8285L24.2157 31.0212L24.4084 31.6956C24.4084 31.6956 25.2408 38.921 25.0482 42.0039C24.8555 45.0867 52.8284 46.2428 52.8284 46.2428L52.6358 31.6956L52.9248 31.1175L53.2138 30.6358L53.6955 30.1541L54.2735 29.8651L55.0442 29.7688H63.9074L64.5818 29.8651L65.0635 30.1541L65.5452 30.5395L65.9306 31.1175L66.1232 31.6956L66.894 79.5761L66.5086 80.9249L65.9306 81.6956L65.6415 82.0809L65.0635 82.5626L64.5818 82.7553L64.1965 82.8516H54.9479L54.4662 82.7553L53.9845 82.5626L53.5992 82.2736L53.2138 81.8882L53.0211 81.5029L52.3468 80.9249L51.9614 79.5761L52.8284 54.7206C41.4581 51.7952 35.2218 51.6826 24.4084 54.7206C24.4084 59.8373 24.5288 63.6614 24.6492 67.4855C24.7697 71.3097 24.8901 75.1338 24.8901 80.2505L24.3121 81.3102L24.1194 81.6956L23.8304 82.0809L23.5413 82.4663L23.156 82.659L22.578 82.8516H22.4816Z" fill="#2888F6"/>
</svg>
