<svg width="713" height="274" viewBox="0 0 713 274" fill="none" xmlns="http://www.w3.org/2000/svg">
<path fill-rule="evenodd" clip-rule="evenodd" d="M50.6788 0.823242C22.749 0.823242 0.107422 23.4648 0.107422 51.3946V223.428C0.107422 251.358 22.749 274 50.6788 274H661.87C689.799 274 712.441 251.358 712.441 223.428V51.3946C712.441 23.4648 689.799 0.823242 661.87 0.823242H50.6788ZM342.892 209.874C352.179 218.048 364.752 222.135 380.611 222.135C388.611 222.135 395.684 221.241 401.827 219.453C408.113 217.537 413.328 215.174 417.472 212.364C421.615 209.554 424.758 206.681 426.901 203.743C429.187 200.805 430.402 198.315 430.545 196.271C430.687 195.122 430.259 194.164 429.259 193.397C428.401 192.631 427.258 192.248 425.83 192.248H407.399C405.828 192.248 404.613 192.439 403.756 192.823C403.042 193.078 402.041 193.972 400.756 195.505C400.041 196.399 398.827 197.548 397.112 198.953C395.398 200.358 393.183 201.635 390.469 202.785C387.754 203.807 384.397 204.318 380.396 204.318C375.539 204.318 371.324 203.168 367.752 200.869C364.323 198.57 361.68 195.569 359.823 191.865C358.108 188.033 357.179 183.882 357.036 179.412V178.454V177.879H428.187C429.759 177.879 431.045 177.432 432.045 176.538C433.045 175.644 433.545 174.558 433.545 173.281V169.258C433.545 159.295 431.545 150.546 427.544 143.01C423.544 135.347 417.615 129.408 409.757 125.193C401.899 120.85 392.183 118.679 380.611 118.679C370.181 118.679 361.108 120.595 353.393 124.427C345.678 128.131 339.606 133.495 335.177 140.52C330.891 147.417 328.462 155.719 327.89 165.426C327.748 166.575 327.676 168.172 327.676 170.216C327.676 172.131 327.748 173.728 327.89 175.005C328.605 190.077 333.605 201.699 342.892 209.874ZM404.399 161.786H357.036V161.211C357.036 156.23 357.894 151.887 359.608 148.183C361.466 144.352 364.18 141.414 367.752 139.37C371.324 137.199 375.61 136.113 380.611 136.113C385.611 136.113 389.897 137.199 393.469 139.37C397.041 141.414 399.755 144.352 401.613 148.183C403.47 151.887 404.399 156.23 404.399 161.211V161.786ZM251.325 220.794C252.325 221.688 253.539 222.135 254.968 222.135H273.613C275.184 222.135 276.47 221.688 277.47 220.794C278.47 219.9 278.97 218.814 278.97 217.537V164.851C278.97 158.72 280.828 153.995 284.542 150.674C288.4 147.225 293.758 145.501 300.616 145.501H317.332C318.903 145.501 320.118 145.054 320.975 144.16C321.975 143.266 322.475 142.18 322.475 140.903V127.109C322.475 125.832 321.975 124.746 320.975 123.852C320.118 122.958 318.903 122.511 317.332 122.511H308.545C301.687 122.511 295.615 123.596 290.329 125.768C285.185 127.939 280.971 131.068 277.685 135.155V127.3C277.685 125.896 277.113 124.746 275.97 123.852C274.97 122.958 273.756 122.511 272.327 122.511H254.968C253.539 122.511 252.325 122.958 251.325 123.852C250.324 124.746 249.824 125.896 249.824 127.3V217.537C249.824 218.814 250.324 219.9 251.325 220.794ZM494.747 212.29C493.453 212.29 492.353 211.879 491.448 211.057C490.542 210.235 490.089 209.237 490.089 208.063V176.334H455.446C454.152 176.334 453.053 175.923 452.147 175.101C451.241 174.279 450.788 173.222 450.788 171.93V157.536C450.788 156.245 451.241 155.247 452.147 154.542C453.053 153.72 454.152 153.309 455.446 153.309H490.089V122.46C490.089 121.286 490.542 120.288 491.448 119.466C492.353 118.644 493.453 118.233 494.747 118.233H511.237C512.66 118.233 513.76 118.644 514.536 119.466C515.442 120.288 515.895 121.286 515.895 122.46V153.309H550.538C551.832 153.309 552.931 153.72 553.837 154.542C554.743 155.247 555.195 156.245 555.195 157.536V171.93C555.195 173.222 554.743 174.279 553.837 175.101C552.931 175.923 551.832 176.334 550.538 176.334H515.895V208.063C515.895 209.237 515.442 210.235 514.536 211.057C513.76 211.879 512.66 212.29 511.237 212.29H494.747ZM616.258 212.29C614.964 212.29 613.865 211.879 612.959 211.057C612.053 210.235 611.6 209.237 611.6 208.063V176.334H576.957C575.663 176.334 574.564 175.923 573.658 175.101C572.753 174.279 572.3 173.222 572.3 171.93V157.536C572.3 156.245 572.753 155.247 573.658 154.542C574.564 153.72 575.663 153.309 576.957 153.309H611.6V122.46C611.6 121.286 612.053 120.288 612.959 119.466C613.865 118.644 614.964 118.233 616.258 118.233H632.748C634.171 118.233 635.271 118.644 636.047 119.466C636.953 120.288 637.406 121.286 637.406 122.46V153.309H672.049C673.343 153.309 674.443 153.72 675.348 154.542C676.254 155.247 676.707 156.245 676.707 157.536V171.93C676.707 173.222 676.254 174.279 675.348 175.101C674.443 175.923 673.343 176.334 672.049 176.334H637.406V208.063C637.406 209.237 636.953 210.235 636.047 211.057C635.271 211.879 634.171 212.29 632.748 212.29H616.258ZM217.059 118.784C226.745 118.784 234.598 110.334 234.598 99.9096C234.598 89.4854 226.745 81.0348 217.059 81.0348C207.373 81.0348 199.52 89.4854 199.52 99.9096C199.52 110.334 207.373 118.784 217.059 118.784ZM208.278 222.481C206.859 222.481 205.653 221.994 204.66 221.021C204.29 220.658 203.48 220.266 202.611 219.845C201.15 219.137 199.52 218.348 199.52 217.476L202.319 130.515C202.319 129.38 202.65 129.079 203.312 128.477C203.461 128.342 203.627 128.191 203.809 128.013C204.802 127.039 205.369 126.97 206.788 126.97H226.152C227.712 126.97 229.131 127.039 229.982 128.013C230.975 128.986 231.046 129.125 231.046 130.515L234.598 217.476C234.598 218.351 232.995 219.143 231.559 219.853C230.713 220.271 229.925 220.661 229.556 221.021C228.705 221.994 227.499 222.481 225.939 222.481H208.278ZM54.5777 89.2933C64.2641 89.2933 72.1165 80.8427 72.1165 70.4184C72.1165 59.9942 64.2641 51.5436 54.5777 51.5436C44.8913 51.5436 37.0389 59.9942 37.0389 70.4184C37.0389 80.8427 44.8913 89.2933 54.5777 89.2933ZM184.361 74.5078C184.361 84.932 176.509 93.3826 166.823 93.3826C157.136 93.3826 149.284 84.932 149.284 74.5078C149.284 64.0835 157.136 55.6329 166.823 55.6329C176.509 55.6329 184.361 64.0835 184.361 74.5078ZM68.9491 222.551H43.6432C43.3926 222.551 42.6911 222.415 41.8893 221.869C40.8871 221.187 37.8806 218.23 37.1289 216.411C36.8828 215.815 37.1739 204.887 37.6038 188.753C38.2241 165.47 39.1332 131.349 39.1332 101.798L39.8849 100.206L40.6366 99.0689L41.8893 98.1593L43.6432 97.2497H68.6986L70.703 97.7045L71.7052 98.3867L72.958 99.7512L73.4591 100.206L73.9602 101.798C73.9602 101.798 76.1252 118.853 75.6241 126.13C75.123 133.407 147.874 136.136 147.874 136.136L147.372 101.798L148.124 100.433L148.876 99.2963L150.129 98.1593L151.632 97.4771L153.636 97.2497H176.687L178.441 97.4771L179.694 98.1593L180.947 99.0689L181.949 100.433L182.45 101.798L184.455 214.819L183.452 218.003L181.949 219.822L181.197 220.732L179.694 221.869L178.441 222.324L177.439 222.551H153.386L152.133 222.324L150.88 221.869L149.878 221.187L148.876 220.277L148.375 219.367L146.621 218.003L145.619 214.819L147.874 156.148C118.302 149.243 102.083 148.977 73.9602 156.148C73.9602 168.226 74.2734 177.253 74.5866 186.28C74.8998 195.306 75.213 204.333 75.213 216.411L73.7097 218.913L73.2085 219.822L72.4569 220.732L71.7052 221.642L70.703 222.096L69.1997 222.551H68.9491Z" fill="white"/>
</svg>
