<svg width="32" height="32" viewBox="0 0 32 32" fill="none" xmlns="http://www.w3.org/2000/svg">
<rect x="2" y="2" width="28" height="28" rx="4" fill="white"/>
<path fill-rule="evenodd" clip-rule="evenodd" d="M5.70348 0C2.55354 0 0 2.55354 0 5.70348V26.2965C0 29.4465 2.55354 32 5.70348 32H26.2965C29.4465 32 32 29.4465 32 26.2965V5.70348C32 2.55354 29.4465 0 26.2965 0H5.70348ZM24.3374 13.2327C25.4241 13.2327 26.305 12.2847 26.305 11.1153C26.305 9.94589 25.4241 8.99789 24.3374 8.99789C23.2508 8.99789 22.3699 9.94589 22.3699 11.1153C22.3699 12.2847 23.2508 13.2327 24.3374 13.2327ZM23.3523 24.8658C23.1932 24.8658 23.0579 24.8112 22.9465 24.7021C22.9049 24.6613 22.8142 24.6174 22.7167 24.5701C22.5528 24.4907 22.3699 24.4021 22.3699 24.3044L22.6839 14.5489C22.6839 14.4216 22.7211 14.3878 22.7953 14.3203C22.812 14.3051 22.8306 14.2882 22.851 14.2682C22.9624 14.159 23.0261 14.1512 23.1852 14.1512H25.3575C25.5325 14.1512 25.6917 14.159 25.7872 14.2682C25.8986 14.3773 25.9065 14.3929 25.9065 14.5489L26.305 24.3044C26.305 24.4025 26.1251 24.4914 25.964 24.571C25.8691 24.6179 25.7807 24.6616 25.7394 24.7021C25.6439 24.8112 25.5087 24.8658 25.3336 24.8658H23.3523ZM6.11062 9.92417C7.19726 9.92417 8.07816 8.97617 8.07816 7.80676C8.07816 6.63734 7.19726 5.68934 6.11062 5.68934C5.02398 5.68934 4.14309 6.63734 4.14309 7.80676C4.14309 8.97617 5.02398 9.92417 6.11062 9.92417ZM20.6704 8.26589C20.6704 9.4353 19.7895 10.3833 18.7029 10.3833C17.6163 10.3833 16.7354 9.4353 16.7354 8.26589C16.7354 7.09647 17.6163 6.14847 18.7029 6.14847C19.7895 6.14847 20.6704 7.09647 20.6704 8.26589ZM4.884 24.8735C4.85589 24.8735 4.77719 24.8582 4.68725 24.7969C4.57482 24.7204 4.23754 24.3888 4.15322 24.1847C4.1256 24.1179 4.15827 22.8918 4.20649 21.0819C4.27608 18.4701 4.37806 14.6422 4.37806 11.3271L4.46239 11.1485L4.54671 11.021L4.68725 10.9189L4.884 10.8169H7.69477L7.91963 10.8679L8.03206 10.9445L8.1726 11.0975L8.22881 11.1485L8.28503 11.3271C8.28503 11.3271 8.5279 13.2404 8.47169 14.0568C8.41547 14.8732 16.5768 15.1793 16.5768 15.1793L16.5206 11.3271L16.6049 11.1741L16.6892 11.0465L16.8298 10.9189L16.9984 10.8424L17.2233 10.8169H19.8092L20.0059 10.8424L20.1465 10.9189L20.287 11.021L20.3994 11.1741L20.4556 11.3271L20.6805 24.0061L20.5681 24.3633L20.3151 24.6694L20.1465 24.7969L20.0059 24.848L19.8935 24.8735H17.1952L17.0546 24.848L16.9141 24.7969L16.8016 24.7204L16.6892 24.6184L16.633 24.5163L16.4363 24.3633L16.3238 24.0061L16.5768 17.4243C13.2594 16.6496 11.4399 16.6198 8.28503 17.4243C8.28503 18.7792 8.32016 19.7918 8.3553 20.8045C8.39043 21.8171 8.42557 22.8298 8.42557 24.1847L8.25692 24.4653L8.2007 24.5673L8.03206 24.7714L7.91963 24.8225L7.75098 24.8735H4.884Z" fill="#2888F6"/>
</svg>
