<svg width="66" height="66" viewBox="0 0 66 66" fill="none" xmlns="http://www.w3.org/2000/svg">
<rect x="5" y="5" width="56" height="56" rx="28" fill="#D4E7FD"/>
<g clip-path="url(#clip0_643_106453)">
<path d="M37.6664 37.6667L32.9997 33.0001M32.9997 33.0001L28.333 37.6667M32.9997 33.0001V43.5001M42.788 40.4551C43.9259 39.8347 44.8248 38.8531 45.3429 37.6651C45.8609 36.4772 45.9686 35.1505 45.6489 33.8945C45.3293 32.6386 44.6004 31.5248 43.5775 30.7291C42.5545 29.9333 41.2957 29.5009 39.9997 29.5001H38.5297C38.1766 28.1342 37.5184 26.8661 36.6046 25.7912C35.6909 24.7163 34.5454 23.8626 33.2542 23.2941C31.963 22.7257 30.5597 22.4573 29.1498 22.5093C27.74 22.5612 26.3603 22.9321 25.1144 23.594C23.8685 24.2559 22.7889 25.1917 21.9568 26.3309C21.1246 27.4701 20.5615 28.7832 20.3099 30.1714C20.0582 31.5595 20.1245 32.9867 20.5038 34.3455C20.8831 35.7044 21.5655 36.9596 22.4997 38.0167" stroke="#206DC5" stroke-width="2.33333" stroke-linecap="round" stroke-linejoin="round"/>
</g>
<rect x="5" y="5" width="56" height="56" rx="28" stroke="#EAF3FE" stroke-width="10"/>
<defs>
<clipPath id="clip0_643_106453">
<rect width="28" height="28" fill="white" transform="translate(19 19)"/>
</clipPath>
</defs>
</svg>