<svg width="273" height="408" viewBox="0 0 273 408" fill="none" xmlns="http://www.w3.org/2000/svg">
<g opacity="0.3">
<line x1="178.24" y1="12.7244" x2="182.5" y2="1.01986" stroke="#2888F6" stroke-width="2"/>
<line x1="204.864" y1="12.1777" x2="211.092" y2="1.39079" stroke="#2888F6" stroke-width="2"/>
<line x1="231.656" y1="11.6453" x2="239.662" y2="2.10368" stroke="#2888F6" stroke-width="2"/>
<line x1="258.65" y1="10.7437" x2="268.192" y2="2.73735" stroke="#2888F6" stroke-width="2"/>
<line x1="19.4605" y1="12.9309" x2="11.4542" y2="3.38926" stroke="#2888F6" stroke-width="2"/>
<line x1="46.0519" y1="13.1777" x2="39.8241" y2="2.39079" stroke="#2888F6" stroke-width="2"/>
<line x1="72.5291" y1="13.4084" x2="68.269" y2="1.7039" stroke="#2888F6" stroke-width="2"/>
<line x1="98.9371" y1="13.6297" x2="96.7742" y2="1.36324" stroke="#2888F6" stroke-width="2"/>
<line x1="125.324" y1="13.4561" x2="125.324" y2="1.00036" stroke="#2888F6" stroke-width="2"/>
<line x1="151.742" y1="13.2824" x2="153.905" y2="1.01594" stroke="#2888F6" stroke-width="2"/>
<line x1="150.217" y1="34.5222" x2="154.477" y2="22.8177" stroke="#2888F6" stroke-width="2"/>
<line x1="176.837" y1="33.9746" x2="183.065" y2="23.1877" stroke="#2888F6" stroke-width="2"/>
<line x1="203.628" y1="33.4431" x2="211.635" y2="23.9015" stroke="#2888F6" stroke-width="2"/>
<line x1="230.627" y1="32.5416" x2="240.168" y2="24.5352" stroke="#2888F6" stroke-width="2"/>
<line x1="257.859" y1="31.2736" x2="268.646" y2="25.0458" stroke="#2888F6" stroke-width="2"/>
<line x1="18.0285" y1="34.9746" x2="11.8007" y2="24.1877" stroke="#2888F6" stroke-width="2"/>
<line x1="44.5017" y1="35.2063" x2="40.2416" y2="23.5018" stroke="#2888F6" stroke-width="2"/>
<line x1="70.9097" y1="35.4266" x2="68.7468" y2="23.1601" stroke="#2888F6" stroke-width="2"/>
<line x1="97.2969" y1="35.2529" x2="97.2969" y2="22.7972" stroke="#2888F6" stroke-width="2"/>
<line x1="123.718" y1="35.0793" x2="125.881" y2="22.8128" stroke="#2888F6" stroke-width="2"/>
<line x1="122.189" y1="56.3201" x2="126.449" y2="44.6156" stroke="#2888F6" stroke-width="2"/>
<line x1="148.814" y1="55.7725" x2="155.042" y2="44.9855" stroke="#2888F6" stroke-width="2"/>
<line x1="175.605" y1="55.24" x2="183.611" y2="45.6984" stroke="#2888F6" stroke-width="2"/>
<line x1="202.603" y1="54.3384" x2="212.145" y2="46.3321" stroke="#2888F6" stroke-width="2"/>
<line x1="229.836" y1="53.0705" x2="240.623" y2="46.8427" stroke="#2888F6" stroke-width="2"/>
<line x1="257.33" y1="52.2185" x2="269.034" y2="47.9584" stroke="#2888F6" stroke-width="2"/>
<line x1="16.4783" y1="57.0041" x2="12.2182" y2="45.2996" stroke="#2888F6" stroke-width="2"/>
<line x1="42.8863" y1="57.2244" x2="40.7234" y2="44.958" stroke="#2888F6" stroke-width="2"/>
<line x1="69.2734" y1="57.0508" x2="69.2734" y2="44.5951" stroke="#2888F6" stroke-width="2"/>
<line x1="95.691" y1="56.8771" x2="97.8539" y2="44.6107" stroke="#2888F6" stroke-width="2"/>
<line x1="94.1658" y1="78.117" x2="98.4259" y2="66.4124" stroke="#2888F6" stroke-width="2"/>
<line x1="120.786" y1="77.5703" x2="127.014" y2="66.7834" stroke="#2888F6" stroke-width="2"/>
<line x1="147.578" y1="77.0379" x2="155.584" y2="67.4963" stroke="#2888F6" stroke-width="2"/>
<line x1="174.576" y1="76.1363" x2="184.118" y2="68.1299" stroke="#2888F6" stroke-width="2"/>
<line x1="201.812" y1="74.8683" x2="212.599" y2="68.6405" stroke="#2888F6" stroke-width="2"/>
<line x1="229.306" y1="74.0164" x2="241.011" y2="69.7563" stroke="#2888F6" stroke-width="2"/>
<line x1="257.08" y1="72.8033" x2="269.347" y2="70.6404" stroke="#2888F6" stroke-width="2"/>
<line x1="14.8589" y1="79.0223" x2="12.696" y2="66.7558" stroke="#2888F6" stroke-width="2"/>
<line x1="41.2461" y1="78.8486" x2="41.2461" y2="66.3929" stroke="#2888F6" stroke-width="2"/>
<line x1="67.6675" y1="78.675" x2="69.8304" y2="66.4085" stroke="#2888F6" stroke-width="2"/>
<line x1="66.1384" y1="99.9148" x2="70.3985" y2="88.2103" stroke="#2888F6" stroke-width="2"/>
<line x1="92.7629" y1="99.3672" x2="98.9907" y2="88.5802" stroke="#2888F6" stroke-width="2"/>
<line x1="119.554" y1="98.8357" x2="127.561" y2="89.2941" stroke="#2888F6" stroke-width="2"/>
<line x1="146.553" y1="97.9332" x2="156.094" y2="89.9268" stroke="#2888F6" stroke-width="2"/>
<line x1="173.785" y1="96.6662" x2="184.572" y2="90.4384" stroke="#2888F6" stroke-width="2"/>
<line x1="201.279" y1="95.8132" x2="212.984" y2="91.5531" stroke="#2888F6" stroke-width="2"/>
<line x1="229.053" y1="94.6011" x2="241.319" y2="92.4382" stroke="#2888F6" stroke-width="2"/>
<line x1="13.2227" y1="100.646" x2="13.2227" y2="88.1898" stroke="#2888F6" stroke-width="2"/>
<line x1="39.6402" y1="100.472" x2="41.8031" y2="88.2054" stroke="#2888F6" stroke-width="2"/>
<line x1="272.68" y1="95.418" x2="260.224" y2="95.418" stroke="#2888F6" stroke-width="2"/>
<line x1="38.115" y1="121.712" x2="42.3751" y2="110.007" stroke="#2888F6" stroke-width="2"/>
<line x1="64.7355" y1="121.165" x2="70.9634" y2="110.378" stroke="#2888F6" stroke-width="2"/>
<line x1="91.5269" y1="120.633" x2="99.5333" y2="111.091" stroke="#2888F6" stroke-width="2"/>
<line x1="118.525" y1="119.731" x2="128.067" y2="111.725" stroke="#2888F6" stroke-width="2"/>
<line x1="145.762" y1="118.463" x2="156.549" y2="112.235" stroke="#2888F6" stroke-width="2"/>
<line x1="173.256" y1="117.611" x2="184.96" y2="113.351" stroke="#2888F6" stroke-width="2"/>
<line x1="201.029" y1="116.398" x2="213.296" y2="114.235" stroke="#2888F6" stroke-width="2"/>
<line x1="11.6168" y1="122.27" x2="13.7797" y2="110.003" stroke="#2888F6" stroke-width="2"/>
<line x1="244.652" y1="117.216" x2="232.197" y2="117.216" stroke="#2888F6" stroke-width="2"/>
<line x1="272.365" y1="118.368" x2="260.099" y2="116.205" stroke="#2888F6" stroke-width="2"/>
<line x1="10.0877" y1="143.51" x2="14.3477" y2="131.805" stroke="#2888F6" stroke-width="2"/>
<line x1="36.7121" y1="142.962" x2="42.9399" y2="132.175" stroke="#2888F6" stroke-width="2"/>
<line x1="63.5035" y1="142.43" x2="71.5099" y2="132.889" stroke="#2888F6" stroke-width="2"/>
<line x1="90.5017" y1="141.529" x2="100.043" y2="133.523" stroke="#2888F6" stroke-width="2"/>
<line x1="117.734" y1="140.261" x2="128.521" y2="134.033" stroke="#2888F6" stroke-width="2"/>
<line x1="145.228" y1="139.409" x2="156.933" y2="135.149" stroke="#2888F6" stroke-width="2"/>
<line x1="173.002" y1="138.196" x2="185.269" y2="136.033" stroke="#2888F6" stroke-width="2"/>
<line x1="216.629" y1="139.013" x2="204.173" y2="139.013" stroke="#2888F6" stroke-width="2"/>
<line x1="244.338" y1="140.165" x2="232.072" y2="138.003" stroke="#2888F6" stroke-width="2"/>
<line x1="271.775" y1="141.288" x2="260.071" y2="137.028" stroke="#2888F6" stroke-width="2"/>
<line x1="8.68476" y1="164.76" x2="14.9126" y2="153.973" stroke="#2888F6" stroke-width="2"/>
<line x1="35.4761" y1="164.227" x2="43.4825" y2="154.686" stroke="#2888F6" stroke-width="2"/>
<line x1="62.4744" y1="163.326" x2="72.016" y2="155.319" stroke="#2888F6" stroke-width="2"/>
<line x1="89.7109" y1="162.058" x2="100.498" y2="155.83" stroke="#2888F6" stroke-width="2"/>
<line x1="117.205" y1="161.206" x2="128.909" y2="156.946" stroke="#2888F6" stroke-width="2"/>
<line x1="144.979" y1="159.994" x2="157.245" y2="157.831" stroke="#2888F6" stroke-width="2"/>
<line x1="270.93" y1="163.79" x2="260.143" y2="157.562" stroke="#2888F6" stroke-width="2"/>
<line x1="188.605" y1="160.811" x2="176.15" y2="160.811" stroke="#2888F6" stroke-width="2"/>
<line x1="216.315" y1="161.963" x2="204.048" y2="159.8" stroke="#2888F6" stroke-width="2"/>
<line x1="243.748" y1="163.085" x2="232.043" y2="158.825" stroke="#2888F6" stroke-width="2"/>
<line x1="7.45271" y1="186.025" x2="15.4591" y2="176.484" stroke="#2888F6" stroke-width="2"/>
<line x1="34.451" y1="185.124" x2="43.9926" y2="177.117" stroke="#2888F6" stroke-width="2"/>
<line x1="61.6836" y1="183.856" x2="72.4705" y2="177.628" stroke="#2888F6" stroke-width="2"/>
<line x1="89.1775" y1="183.004" x2="100.882" y2="178.744" stroke="#2888F6" stroke-width="2"/>
<line x1="116.951" y1="181.791" x2="129.218" y2="179.628" stroke="#2888F6" stroke-width="2"/>
<line x1="242.902" y1="185.588" x2="232.115" y2="179.36" stroke="#2888F6" stroke-width="2"/>
<line x1="269.853" y1="186.656" x2="260.312" y2="178.649" stroke="#2888F6" stroke-width="2"/>
<line x1="160.578" y1="182.607" x2="148.122" y2="182.607" stroke="#2888F6" stroke-width="2"/>
<line x1="188.287" y1="183.76" x2="176.021" y2="181.597" stroke="#2888F6" stroke-width="2"/>
<line x1="215.724" y1="184.883" x2="204.02" y2="180.623" stroke="#2888F6" stroke-width="2"/>
<line x1="6.42362" y1="206.92" x2="15.9652" y2="198.914" stroke="#2888F6" stroke-width="2"/>
<line x1="33.6602" y1="205.654" x2="44.4471" y2="199.426" stroke="#2888F6" stroke-width="2"/>
<line x1="61.1541" y1="204.802" x2="72.8586" y2="200.541" stroke="#2888F6" stroke-width="2"/>
<line x1="88.9279" y1="203.588" x2="101.194" y2="201.426" stroke="#2888F6" stroke-width="2"/>
<line x1="214.879" y1="207.386" x2="204.092" y2="201.158" stroke="#2888F6" stroke-width="2"/>
<line x1="241.826" y1="208.453" x2="232.284" y2="200.446" stroke="#2888F6" stroke-width="2"/>
<line x1="268.578" y1="209.109" x2="260.571" y2="199.567" stroke="#2888F6" stroke-width="2"/>
<line x1="132.555" y1="204.405" x2="120.099" y2="204.405" stroke="#2888F6" stroke-width="2"/>
<line x1="160.264" y1="205.558" x2="147.997" y2="203.395" stroke="#2888F6" stroke-width="2"/>
<line x1="187.701" y1="206.681" x2="175.996" y2="202.421" stroke="#2888F6" stroke-width="2"/>
<line x1="5.63281" y1="227.45" x2="16.4198" y2="221.223" stroke="#2888F6" stroke-width="2"/>
<line x1="33.1267" y1="226.598" x2="44.8313" y2="222.338" stroke="#2888F6" stroke-width="2"/>
<line x1="60.9006" y1="225.385" x2="73.167" y2="223.222" stroke="#2888F6" stroke-width="2"/>
<line x1="186.852" y1="229.182" x2="176.065" y2="222.955" stroke="#2888F6" stroke-width="2"/>
<line x1="213.803" y1="230.25" x2="204.261" y2="222.244" stroke="#2888F6" stroke-width="2"/>
<line x1="240.55" y1="230.905" x2="232.544" y2="221.364" stroke="#2888F6" stroke-width="2"/>
<line x1="267.146" y1="231.152" x2="260.918" y2="220.365" stroke="#2888F6" stroke-width="2"/>
<line x1="104.527" y1="226.203" x2="92.0716" y2="226.203" stroke="#2888F6" stroke-width="2"/>
<line x1="132.237" y1="227.355" x2="119.97" y2="225.192" stroke="#2888F6" stroke-width="2"/>
<line x1="159.674" y1="228.478" x2="147.969" y2="224.218" stroke="#2888F6" stroke-width="2"/>
<line x1="5.10329" y1="248.396" x2="16.8078" y2="244.136" stroke="#2888F6" stroke-width="2"/>
<line x1="32.8771" y1="247.183" x2="45.1436" y2="245.02" stroke="#2888F6" stroke-width="2"/>
<line x1="158.828" y1="250.98" x2="148.041" y2="244.752" stroke="#2888F6" stroke-width="2"/>
<line x1="185.775" y1="252.048" x2="176.234" y2="244.042" stroke="#2888F6" stroke-width="2"/>
<line x1="212.527" y1="252.703" x2="204.521" y2="243.162" stroke="#2888F6" stroke-width="2"/>
<line x1="239.118" y1="252.949" x2="232.891" y2="242.162" stroke="#2888F6" stroke-width="2"/>
<line x1="265.595" y1="253.181" x2="261.335" y2="241.476" stroke="#2888F6" stroke-width="2"/>
<line x1="76.5039" y1="248" x2="64.0482" y2="248" stroke="#2888F6" stroke-width="2"/>
<line x1="104.213" y1="249.153" x2="91.9466" y2="246.99" stroke="#2888F6" stroke-width="2"/>
<line x1="131.65" y1="250.276" x2="119.946" y2="246.016" stroke="#2888F6" stroke-width="2"/>
<line x1="4.84979" y1="268.981" x2="17.1163" y2="266.818" stroke="#2888F6" stroke-width="2"/>
<line x1="130.801" y1="272.778" x2="120.014" y2="266.55" stroke="#2888F6" stroke-width="2"/>
<line x1="157.752" y1="273.845" x2="148.21" y2="265.839" stroke="#2888F6" stroke-width="2"/>
<line x1="184.503" y1="274.5" x2="176.497" y2="264.959" stroke="#2888F6" stroke-width="2"/>
<line x1="211.095" y1="274.747" x2="204.867" y2="263.96" stroke="#2888F6" stroke-width="2"/>
<line x1="237.568" y1="274.979" x2="233.308" y2="263.274" stroke="#2888F6" stroke-width="2"/>
<line x1="263.976" y1="275.199" x2="261.813" y2="262.933" stroke="#2888F6" stroke-width="2"/>
<line x1="48.4766" y1="269.798" x2="36.0209" y2="269.798" stroke="#2888F6" stroke-width="2"/>
<line x1="76.1857" y1="270.951" x2="63.9193" y2="268.788" stroke="#2888F6" stroke-width="2"/>
<line x1="103.623" y1="272.073" x2="91.9183" y2="267.812" stroke="#2888F6" stroke-width="2"/>
<line x1="102.777" y1="294.575" x2="91.9904" y2="288.347" stroke="#2888F6" stroke-width="2"/>
<line x1="129.724" y1="295.643" x2="120.183" y2="287.637" stroke="#2888F6" stroke-width="2"/>
<line x1="156.476" y1="296.298" x2="148.47" y2="286.756" stroke="#2888F6" stroke-width="2"/>
<line x1="183.068" y1="296.545" x2="176.84" y2="285.758" stroke="#2888F6" stroke-width="2"/>
<line x1="209.545" y1="296.776" x2="205.285" y2="285.071" stroke="#2888F6" stroke-width="2"/>
<line x1="235.953" y1="296.997" x2="233.79" y2="284.73" stroke="#2888F6" stroke-width="2"/>
<line x1="262.34" y1="296.823" x2="262.34" y2="284.368" stroke="#2888F6" stroke-width="2"/>
<line x1="20.4531" y1="291.595" x2="7.99743" y2="291.595" stroke="#2888F6" stroke-width="2"/>
<line x1="48.1623" y1="292.748" x2="35.8958" y2="290.585" stroke="#2888F6" stroke-width="2"/>
<line x1="75.5994" y1="293.87" x2="63.8949" y2="289.61" stroke="#2888F6" stroke-width="2"/>
<line x1="74.75" y1="316.373" x2="63.9631" y2="310.145" stroke="#2888F6" stroke-width="2"/>
<line x1="101.701" y1="317.44" x2="92.1593" y2="309.434" stroke="#2888F6" stroke-width="2"/>
<line x1="128.453" y1="318.096" x2="120.446" y2="308.554" stroke="#2888F6" stroke-width="2"/>
<line x1="155.044" y1="318.342" x2="148.816" y2="307.555" stroke="#2888F6" stroke-width="2"/>
<line x1="181.517" y1="318.573" x2="177.257" y2="306.869" stroke="#2888F6" stroke-width="2"/>
<line x1="207.925" y1="318.794" x2="205.762" y2="306.527" stroke="#2888F6" stroke-width="2"/>
<line x1="234.312" y1="318.62" x2="234.312" y2="306.164" stroke="#2888F6" stroke-width="2"/>
<line x1="260.734" y1="318.446" x2="262.897" y2="306.18" stroke="#2888F6" stroke-width="2"/>
<line x1="20.1349" y1="314.545" x2="7.86848" y2="312.382" stroke="#2888F6" stroke-width="2"/>
<line x1="47.572" y1="315.668" x2="35.8675" y2="311.408" stroke="#2888F6" stroke-width="2"/>
<line x1="259.205" y1="339.686" x2="263.465" y2="327.982" stroke="#2888F6" stroke-width="2"/>
<line x1="46.7266" y1="338.17" x2="35.9396" y2="331.942" stroke="#2888F6" stroke-width="2"/>
<line x1="73.6736" y1="339.238" x2="64.132" y2="331.231" stroke="#2888F6" stroke-width="2"/>
<line x1="100.425" y1="339.893" x2="92.419" y2="330.351" stroke="#2888F6" stroke-width="2"/>
<line x1="127.017" y1="340.14" x2="120.789" y2="329.353" stroke="#2888F6" stroke-width="2"/>
<line x1="153.494" y1="340.37" x2="149.234" y2="328.666" stroke="#2888F6" stroke-width="2"/>
<line x1="179.902" y1="340.592" x2="177.739" y2="328.325" stroke="#2888F6" stroke-width="2"/>
<line x1="206.289" y1="340.418" x2="206.289" y2="327.962" stroke="#2888F6" stroke-width="2"/>
<line x1="232.707" y1="340.244" x2="234.87" y2="327.978" stroke="#2888F6" stroke-width="2"/>
<line x1="19.5486" y1="337.465" x2="7.84408" y2="333.205" stroke="#2888F6" stroke-width="2"/>
<line x1="231.181" y1="361.484" x2="235.441" y2="349.78" stroke="#2888F6" stroke-width="2"/>
<line x1="257.802" y1="360.937" x2="264.03" y2="350.15" stroke="#2888F6" stroke-width="2"/>
<line x1="18.6992" y1="359.968" x2="7.91227" y2="353.74" stroke="#2888F6" stroke-width="2"/>
<line x1="45.6502" y1="361.036" x2="36.1086" y2="353.029" stroke="#2888F6" stroke-width="2"/>
<line x1="72.4019" y1="361.691" x2="64.3956" y2="352.149" stroke="#2888F6" stroke-width="2"/>
<line x1="98.9933" y1="361.937" x2="92.7655" y2="351.15" stroke="#2888F6" stroke-width="2"/>
<line x1="125.467" y1="362.168" x2="121.206" y2="350.464" stroke="#2888F6" stroke-width="2"/>
<line x1="151.875" y1="362.389" x2="149.712" y2="350.123" stroke="#2888F6" stroke-width="2"/>
<line x1="178.262" y1="362.216" x2="178.262" y2="349.76" stroke="#2888F6" stroke-width="2"/>
<line x1="204.683" y1="362.042" x2="206.846" y2="349.776" stroke="#2888F6" stroke-width="2"/>
<line x1="203.154" y1="383.282" x2="207.414" y2="371.577" stroke="#2888F6" stroke-width="2"/>
<line x1="229.779" y1="382.734" x2="236.006" y2="371.947" stroke="#2888F6" stroke-width="2"/>
<line x1="256.57" y1="382.202" x2="264.576" y2="372.66" stroke="#2888F6" stroke-width="2"/>
<line x1="17.6228" y1="382.832" x2="8.08122" y2="374.826" stroke="#2888F6" stroke-width="2"/>
<line x1="44.3746" y1="383.488" x2="36.3682" y2="373.946" stroke="#2888F6" stroke-width="2"/>
<line x1="70.966" y1="383.734" x2="64.7382" y2="372.947" stroke="#2888F6" stroke-width="2"/>
<line x1="97.4431" y1="383.966" x2="93.183" y2="372.262" stroke="#2888F6" stroke-width="2"/>
<line x1="123.851" y1="384.186" x2="121.688" y2="371.92" stroke="#2888F6" stroke-width="2"/>
<line x1="150.238" y1="384.013" x2="150.238" y2="371.557" stroke="#2888F6" stroke-width="2"/>
<line x1="176.656" y1="383.839" x2="178.819" y2="371.573" stroke="#2888F6" stroke-width="2"/>
<line x1="175.131" y1="405.079" x2="179.391" y2="393.374" stroke="#2888F6" stroke-width="2"/>
<line x1="201.751" y1="404.532" x2="207.979" y2="393.745" stroke="#2888F6" stroke-width="2"/>
<line x1="228.543" y1="404" x2="236.549" y2="394.458" stroke="#2888F6" stroke-width="2"/>
<line x1="255.541" y1="403.098" x2="265.082" y2="395.092" stroke="#2888F6" stroke-width="2"/>
<line x1="16.3511" y1="405.285" x2="8.34478" y2="395.744" stroke="#2888F6" stroke-width="2"/>
<line x1="42.9426" y1="405.532" x2="36.7147" y2="394.745" stroke="#2888F6" stroke-width="2"/>
<line x1="69.4158" y1="405.763" x2="65.1557" y2="394.058" stroke="#2888F6" stroke-width="2"/>
<line x1="95.8238" y1="405.984" x2="93.6609" y2="393.718" stroke="#2888F6" stroke-width="2"/>
<line x1="122.211" y1="405.811" x2="122.211" y2="393.355" stroke="#2888F6" stroke-width="2"/>
<line x1="148.632" y1="405.637" x2="150.795" y2="393.37" stroke="#2888F6" stroke-width="2"/>
</g>
</svg>
