<svg width="98" height="99" viewBox="0 0 98 99" fill="none" xmlns="http://www.w3.org/2000/svg">
<path d="M5.33594 33.9597C5.33594 18.4958 17.872 5.95972 33.3359 5.95972H64.6641C80.1281 5.95972 92.6641 18.4957 92.6641 33.9597V65.2879C92.6641 80.7518 80.1281 93.2879 64.6641 93.2879H33.3359C17.872 93.2879 5.33594 80.7518 5.33594 65.2879V33.9597Z" fill="#D4E7FD"/>
<path d="M55.3677 41.4368L61.7354 35.0691M65.3741 31.4304L61.7354 35.0691L65.3741 31.4304ZM47.8902 48.9142C48.8296 49.8411 49.5764 50.9447 50.0876 52.1614C50.5987 53.3781 50.8641 54.6838 50.8685 56.0035C50.873 57.3232 50.6163 58.6307 50.1133 59.8508C49.6103 61.0709 48.871 62.1794 47.9378 63.1126C47.0046 64.0458 45.8961 64.7851 44.676 65.2881C43.4559 65.7911 42.1484 66.0478 40.8287 66.0433C39.509 66.0389 38.2033 65.7735 36.9866 65.2624C35.7699 64.7512 34.6663 64.0044 33.7394 63.065C31.9167 61.1778 30.9081 58.6502 30.9309 56.0266C30.9537 53.4029 32.0061 50.8932 33.8613 49.038C35.7166 47.1827 38.2263 46.1303 40.8499 46.1075C43.4736 46.0847 46.0012 47.0933 47.8884 48.9161L47.8902 48.9142ZM47.8902 48.9142L55.3677 41.4368L47.8902 48.9142ZM55.3677 41.4368L60.8257 46.8948L67.1934 40.5271L61.7354 35.0691L55.3677 41.4368Z" stroke="#206DC5" stroke-width="3.63867" stroke-linecap="round" stroke-linejoin="round"/>
<path d="M33.3359 10.9597H64.6641V0.959717H33.3359V10.9597ZM87.6641 33.9597V65.2879H97.6641V33.9597H87.6641ZM64.6641 88.2879H33.3359V98.2879H64.6641V88.2879ZM10.3359 65.2879V33.9597H0.335938V65.2879H10.3359ZM33.3359 88.2879C20.6334 88.2879 10.3359 77.9904 10.3359 65.2879H0.335938C0.335938 83.5133 15.1106 98.2879 33.3359 98.2879V88.2879ZM87.6641 65.2879C87.6641 77.9904 77.3666 88.2879 64.6641 88.2879V98.2879C82.8895 98.2879 97.6641 83.5133 97.6641 65.2879H87.6641ZM64.6641 10.9597C77.3666 10.9597 87.6641 21.2572 87.6641 33.9597H97.6641C97.6641 15.7343 82.8895 0.959717 64.6641 0.959717V10.9597ZM33.3359 0.959717C15.1105 0.959717 0.335938 15.7343 0.335938 33.9597H10.3359C10.3359 21.2572 20.6334 10.9597 33.3359 10.9597V0.959717Z" fill="#EAF3FE"/>
</svg>
