<svg width="298" height="422" viewBox="0 0 298 422" fill="none" xmlns="http://www.w3.org/2000/svg">
<path d="M298 104.892L298 316.343C298 334.384 282.734 349.02 263.915 349.02L34.1192 349.02C15.2996 349.02 0.0339248 334.384 0.0339255 316.343L0.0339342 104.892C0.0339349 86.8513 15.2997 72.2148 34.1192 72.2148L263.853 72.2148C282.673 72.2148 298 86.8513 298 104.892Z" fill="#185294"/>
<path d="M-9.81056e-05 421.213L-9.80639e-05 420.198C-9.44744e-05 332.906 66.8401 261.855 148.961 261.855C231.08 261.855 297.923 332.906 297.923 420.198L297.923 421.213L-9.81056e-05 421.213Z" fill="#61ABFF"/>
<path d="M0.0186462 -1.38429e-05L0.0186462 1.01481C0.0186426 88.3063 66.8588 159.357 148.977 159.357C231.098 159.357 297.938 88.3063 297.938 1.01483L297.938 0L0.0186462 -1.38429e-05Z" fill="#61ABFF"/>
<path d="M173.223 359.835L173.223 415.811C173.223 418.777 170.959 421.193 168.16 421.193L129.874 421.193C127.084 421.193 124.811 418.787 124.811 415.811L124.811 359.835C124.811 356.866 127.074 354.453 129.874 354.453L168.16 354.453C170.959 354.453 173.223 356.859 173.223 359.835Z" fill="#1D2939"/>
<path d="M124.657 63.2396L173.377 63.2396L173.377 0.320312L124.657 0.32031L124.657 63.2396Z" fill="#1D2939"/>
<path d="M188.732 69.9417L281.355 168.4C303.291 191.718 303.291 229.515 281.355 252.833L188.732 351.291C166.796 374.609 131.238 374.609 109.302 351.291L16.6793 252.833C-5.2569 229.515 -5.2569 191.718 16.6793 168.4L109.302 69.9417C131.238 46.6236 166.796 46.6236 188.732 69.9417Z" fill="#D4E7FD"/>
<path d="M75.1552 368.912L75.1553 210.629L149.029 210.629L149.029 368.912L75.1552 368.912Z" fill="#2888F6"/>
<path d="M149.137 209.73L149.137 210.238C149.137 253.758 182.461 289.182 223.405 289.182C264.345 289.182 297.67 253.758 297.67 210.238L297.67 209.73L149.137 209.73Z" fill="#2888F6"/>
<path d="M0.0984159 211.506L0.0984159 210.998C0.0984177 167.479 33.4231 132.055 74.3667 132.055C115.307 132.055 148.632 167.479 148.632 210.998L148.632 211.506L0.0984159 211.506Z" fill="#2888F6"/>
<path d="M223.021 210.603L223.021 52.3164L149.15 52.3164L149.15 210.603L223.021 210.603Z" fill="#2888F6"/>
<path d="M75.0505 210.618C75.0505 254.02 108.187 289.244 149.017 289.244C189.847 289.244 222.983 254.02 222.983 210.618C222.983 167.216 189.847 131.992 149.017 131.992C108.187 131.992 75.0506 167.216 75.0505 210.618Z" fill="#103662"/>
<path d="M149.269 239.496C133.128 239.496 120 226.601 120 210.748C120 194.895 133.128 182 149.269 182C165.409 182 178.537 194.895 178.537 210.748C178.537 226.601 165.409 239.496 149.269 239.496Z" fill="#D4E7FD" stroke="#1F2123" stroke-width="4"/>
<path d="M139.408 210.323L147.634 218.402L159.13 203.154" stroke="#2888F6" stroke-width="4" stroke-linecap="round" stroke-linejoin="round"/>
</svg>
