<svg width="288" height="383" viewBox="0 0 288 383" fill="none" xmlns="http://www.w3.org/2000/svg">
<path d="M287.477 94.9281L287.477 286.844C287.477 303.219 272.748 316.503 254.591 316.503L32.8856 316.503C14.7285 316.503 0.00023374 303.219 0.000234455 286.844L0.000242844 94.9281C0.00024356 78.5538 14.7285 65.2695 32.8856 65.2695L254.532 65.2695C272.689 65.2695 287.477 78.5538 287.477 94.9281Z" fill="#185294"/>
<path d="M85.5177 267.754L201.959 267.754C209.215 267.754 215.137 273.643 215.137 280.931L215.137 368.615C215.137 375.867 209.248 381.789 201.959 381.789L85.5177 381.789C78.262 381.789 72.3404 375.9 72.3404 368.615L72.3405 280.931C72.3731 273.643 78.2621 267.754 85.5177 267.754Z" fill="#61ABFF"/>
<path d="M85.5177 0.0273381L201.959 0.0273432C209.215 0.0273435 215.137 5.91628 215.137 13.2047L215.137 100.885C215.137 108.141 209.248 114.062 201.959 114.062L85.5177 114.062C78.262 114.062 72.3404 108.173 72.3404 100.885L72.3405 13.2047C72.3731 5.91628 78.2621 0.0273378 85.5177 0.0273381Z" fill="#61ABFF"/>
<path d="M97.0309 382.1L97.0309 381.797C97.0309 355.882 118.123 334.789 144.038 334.789C169.956 334.789 191.049 355.882 191.049 381.797L191.049 382.1L97.0309 382.1Z" fill="#1D2939"/>
<path d="M97.0309 -4.10966e-06L97.0309 0.303056C97.0309 26.2179 118.123 47.3106 144.038 47.3106C169.956 47.3106 191.049 26.2179 191.049 0.30306L191.049 0L97.0309 -4.10966e-06Z" fill="#1D2939"/>
<path d="M182.054 63.1932L271.416 152.555C292.58 173.719 292.58 208.025 271.416 229.189L182.054 318.551C160.89 339.715 126.585 339.715 105.421 318.551L16.0585 229.189C-5.10538 208.025 -5.10538 173.719 16.0585 152.555L105.421 63.1932C126.585 42.0293 160.89 42.0293 182.054 63.1932Z" fill="#D4E7FD"/>
<path d="M72.4766 334.548L72.4766 190.887L143.75 190.887L143.75 334.548L72.4766 334.548Z" fill="#185294"/>
<path d="M143.854 190.07L143.854 190.531C143.854 230.03 176.005 262.182 215.507 262.182C255.007 262.182 287.158 230.03 287.158 190.531L287.158 190.07L143.854 190.07Z" fill="#185294"/>
<path d="M0.0618255 191.689L0.0618255 191.229C0.0618272 151.73 32.2133 119.578 71.7155 119.578C111.215 119.578 143.366 151.73 143.366 191.229L143.366 191.689L0.0618255 191.689Z" fill="#185294"/>
<path d="M215.137 190.863L215.137 47.1992L143.866 47.1992L143.866 190.863L215.137 190.863Z" fill="#185294"/>
<path d="M215.086 262.245L215.086 119.523L72.364 119.523L72.3639 262.245L215.086 262.245Z" fill="#103662"/>
<path d="M126.932 217.141L130.113 197.361L115.66 183.456L135.402 180.414L144.138 162.496L153.203 180.322L172.965 182.924L158.766 197.094L162.387 216.818L144.601 207.643L126.932 217.141Z" fill="white"/>
</svg>
