<svg width="312" height="415" viewBox="0 0 312 415" fill="none" xmlns="http://www.w3.org/2000/svg">
<path d="M2.2723e-05 71.4156L0 343.43L312 343.43L312 71.4157L2.2723e-05 71.4156Z" fill="#185294"/>
<path d="M52.6846 155.066L259.315 155.066L259.315 0.0919157L52.6846 0.0918732L52.6846 155.066Z" fill="#206DC5"/>
<path d="M219.187 414.555L92.8122 414.555C84.9375 414.555 78.5107 408.163 78.5107 400.253L78.5108 305.093C78.5108 297.219 84.902 290.792 92.8122 290.792L219.187 290.792C227.062 290.792 233.489 297.183 233.489 305.093L233.489 400.253C233.453 408.163 227.062 414.555 219.187 414.555Z" fill="#206DC5"/>
<path d="M130.653 60.4408L130.653 5.30213C130.653 2.38058 133.023 0.000786316 135.955 0.000786919L176.044 0.000795171C178.965 0.000795773 181.345 2.37091 181.345 5.30214L181.345 60.4408C181.345 63.3656 178.975 65.7422 176.044 65.7422L135.955 65.7422C133.023 65.7422 130.653 63.372 130.653 60.4408Z" fill="#1D2939"/>
<path d="M206.692 414.586L206.692 414.257C206.692 386.131 183.8 363.239 155.674 363.239C127.545 363.239 104.653 386.131 104.653 414.257L104.653 414.586L206.692 414.586Z" fill="#1D2939"/>
<path d="M114.415 345.992L17.4301 249.006C-5.5392 226.037 -5.5392 188.805 17.4301 165.836L114.415 68.8505C137.385 45.8812 174.617 45.8812 197.586 68.8505L294.571 165.836C317.541 188.805 317.541 226.037 294.571 249.007L197.586 345.992C174.617 368.961 137.385 368.961 114.415 345.992Z" fill="#D4E7FD"/>
<path d="M233.341 51.4979L233.341 207.414L155.987 207.414L155.987 51.4979L233.341 51.4979Z" fill="#2888F6"/>
<path d="M155.875 208.301L155.875 207.801C155.875 164.932 120.981 130.038 78.1087 130.038C35.2399 130.038 0.345707 164.932 0.345703 207.801L0.345703 208.301L155.875 208.301Z" fill="#2888F6"/>
<path d="M311.529 206.999L311.529 207.499C311.529 250.368 276.635 285.262 233.763 285.262C190.894 285.262 156 250.368 156 207.499L156 206.999L311.529 206.999Z" fill="#2888F6"/>
<path d="M78.5108 207.436L78.5107 363.355L155.861 363.355L155.861 207.436L78.5108 207.436Z" fill="#2888F6"/>
<path d="M77.2114 183.775L132.353 128.634C145.416 115.57 166.583 115.57 179.646 128.634L234.788 183.776C247.851 196.839 247.851 218.005 234.788 231.069L179.646 286.21C166.583 299.274 145.416 299.274 132.353 286.21L77.2114 231.069C64.1483 218.005 64.1483 196.839 77.2114 183.775Z" fill="#103662"/>
<path d="M177.778 199.093V164H137.222V181.546H121V242.959H153.444V225.413H161.556V242.959H194V199.093H177.778ZM137.222 234.186H129.111V225.413H137.222V234.186ZM137.222 216.639H129.111V207.866H137.222V216.639ZM137.222 199.093H129.111V190.32H137.222V199.093ZM153.444 216.639H145.333V207.866H153.444V216.639ZM153.444 199.093H145.333V190.32H153.444V199.093ZM153.444 181.546H145.333V172.773H153.444V181.546ZM169.667 216.639H161.556V207.866H169.667V216.639ZM169.667 199.093H161.556V190.32H169.667V199.093ZM169.667 181.546H161.556V172.773H169.667V181.546ZM185.889 234.186H177.778V225.413H185.889V234.186ZM185.889 216.639H177.778V207.866H185.889V216.639Z" fill="#D4E7FD"/>
</svg>
