<svg width="274" height="364" viewBox="0 0 274 364" fill="none" xmlns="http://www.w3.org/2000/svg">
<path d="M243.426 315.389C259.994 315.389 273.426 301.957 273.426 285.389L273.426 78C273.426 61.4314 259.994 48 243.426 48L30.065 48C13.4965 48 0.0650324 61.4314 0.0650316 78L0.0650226 285.389C0.0650219 301.957 13.4965 315.389 30.065 315.389L243.426 315.389Z" fill="#185294"/>
<path d="M0.0333497 363.511L0.0333497 362.635C0.033353 287.272 61.354 225.93 136.694 225.93C212.031 225.93 273.354 287.272 273.354 362.635L273.354 363.511L0.0333497 363.511Z" fill="#61ABFF"/>
<path d="M81.3832 0.160151L192.107 0.160156C199.007 0.160156 204.638 5.76188 204.638 12.6948L204.638 96.0989C204.638 103.001 199.038 108.634 192.107 108.634L81.3832 108.634C74.4838 108.634 68.853 103.032 68.853 96.0989L68.853 12.6948C68.884 5.76188 74.4838 0.160151 81.3832 0.160151Z" fill="#61ABFF"/>
<path d="M159.164 309.008L114.326 309.008L114.326 363.329L159.164 363.329L159.164 309.008Z" fill="#1D2939"/>
<path d="M92.3309 0.124996L92.3309 0.413276C92.3309 25.0643 112.388 45.1282 137.03 45.1282C161.675 45.1282 181.732 25.0643 181.732 0.413279L181.732 0.125L92.3309 0.124996Z" fill="#1D2939"/>
<path d="M0.0141237 181.697C0.0141204 257.199 61.2698 318.475 136.745 318.475C212.221 318.475 273.477 257.199 273.477 181.697C273.477 106.195 212.221 44.918 136.745 44.918C61.2698 44.918 0.014127 106.195 0.0141237 181.697Z" fill="#D4E7FD"/>
<path d="M137.514 182.074L137.076 182.074C99.516 182.074 68.9432 212.658 68.9432 250.233C68.9432 287.806 99.516 318.389 137.076 318.389L137.514 318.389L137.514 182.074Z" fill="#2888F6"/>
<path d="M136.762 249.572L273.372 249.572L273.372 181.777L136.762 181.777L136.762 249.572Z" fill="#2888F6"/>
<path d="M136.609 113.727L-0.000350952 113.727L-0.000353916 181.524L136.609 181.524L136.609 113.727Z" fill="#2888F6"/>
<path d="M135.976 45.0352L136.414 45.0352C173.974 45.0352 204.547 75.6185 204.547 113.194C204.547 150.767 173.974 181.35 136.414 181.35L135.976 181.35L135.976 45.0352Z" fill="#2888F6"/>
<path d="M68.8866 181.695C68.8866 219.166 99.287 249.577 136.745 249.577C174.203 249.577 204.604 219.166 204.604 181.695C204.604 144.223 174.203 113.812 136.745 113.812C99.287 113.812 68.8866 144.223 68.8866 181.695Z" fill="#103662"/>
<path d="M128 157.66C133.522 161.802 141.357 160.682 145.498 155.159C149.642 149.633 148.522 141.795 142.998 137.653C137.477 133.509 129.64 134.629 125.5 140.154C121.359 145.677 122.479 153.514 128 157.66Z" fill="white"/>
<path d="M132 147.614C132 149.611 133.618 151.23 135.614 151.23C137.61 151.23 139.228 149.611 139.228 147.614C139.228 145.617 137.61 143.999 135.614 143.999C133.618 143.999 132 145.617 132 147.614Z" fill="#231F20"/>
<path d="M128 190.753C133.522 194.895 141.357 193.775 145.498 188.252C149.642 182.725 148.522 174.888 142.998 170.746C137.477 166.602 129.64 167.722 125.5 173.247C121.359 178.77 122.479 186.607 128 190.753Z" fill="white"/>
<path d="M132.078 180.922C132.078 182.919 133.696 184.537 135.692 184.537C137.688 184.537 139.306 182.919 139.306 180.922C139.306 178.925 137.688 177.307 135.692 177.307C133.696 177.307 132.078 178.925 132.078 180.922Z" fill="#231F20"/>
<path d="M128 224.508C133.522 228.65 141.357 227.53 145.498 222.007C149.642 216.48 148.522 208.643 142.998 204.501C137.477 200.357 129.64 201.477 125.5 207.002C121.359 212.525 122.479 220.362 128 224.508Z" fill="white"/>
<path d="M131.921 214.359C131.921 216.356 133.539 217.975 135.535 217.975C137.532 217.975 139.149 216.356 139.149 214.359C139.149 212.363 137.532 210.744 135.535 210.744C133.539 210.744 131.921 212.363 131.921 214.359Z" fill="#231F20"/>
</svg>
