<svg width="313" height="416" viewBox="0 0 313 416" fill="none" xmlns="http://www.w3.org/2000/svg">
<path d="M312.941 344.118L312.941 71.3477L0.0740298 71.3476L0.0740179 344.118L312.941 344.118Z" fill="#185294"/>
<path d="M93.1445 291.402L219.871 291.402C227.767 291.402 234.212 297.811 234.212 305.744L234.212 401.171C234.212 409.065 227.803 415.509 219.871 415.509L93.1445 415.509C85.2479 415.509 78.8033 409.1 78.8033 401.171L78.8033 305.744C78.8389 297.811 85.2479 291.402 93.1445 291.402Z" fill="#61ABFF"/>
<path d="M93.1445 0.0234313L219.871 0.0234369C227.767 0.0234372 234.212 6.43251 234.212 14.3646L234.212 109.789C234.212 117.686 227.803 124.13 219.871 124.13L93.1445 124.13C85.2479 124.13 78.8033 117.721 78.8033 109.789L78.8033 14.3646C78.8389 6.4325 85.2479 0.023431 93.1445 0.0234313Z" fill="#61ABFF"/>
<path d="M181.924 355.121L181.924 410.413C181.924 413.342 179.548 415.729 176.608 415.729L136.408 415.729C133.478 415.729 131.092 413.352 131.092 410.413L131.092 355.121C131.092 352.188 133.468 349.805 136.408 349.805L176.608 349.805C179.548 349.805 181.924 352.181 181.924 355.121Z" fill="#1D2939"/>
<path d="M130.93 62.1505L182.086 62.1505L182.086 0L130.93 -2.23611e-06L130.93 62.1505Z" fill="#1D2939"/>
<path d="M0.0162879 207.73C0.0162842 294.114 70.1247 364.222 156.508 364.222C242.892 364.222 313 294.114 313 207.73C313 121.347 242.892 51.2383 156.508 51.2383C70.1248 51.2383 0.0162917 121.347 0.0162879 207.73Z" fill="#D4E7FD"/>
<path d="M157.388 208.16L156.886 208.16C113.899 208.16 78.9073 243.151 78.9073 286.143C78.9073 329.131 113.899 364.122 156.886 364.122L157.388 364.122L157.388 208.16Z" fill="#2888F6"/>
<path d="M156.527 285.378L312.88 285.378L312.88 207.812L156.527 207.812L156.527 285.378Z" fill="#2888F6"/>
<path d="M156.353 129.961L-0.00029381 129.961L-0.000297201 207.529L156.353 207.529L156.353 129.961Z" fill="#2888F6"/>
<path d="M155.629 51.3594L156.13 51.3594C199.118 51.3594 234.109 86.3506 234.109 129.342C234.109 172.33 199.118 207.321 156.13 207.321L155.629 207.321L155.629 51.3594Z" fill="#2888F6"/>
<path d="M234.173 148.405L234.173 267.06C234.173 277.181 226.212 285.398 216.401 285.398L96.6144 285.398C86.8036 285.398 78.8424 277.181 78.8424 267.06L78.8424 148.405C78.8424 138.284 86.8036 130.07 96.6144 130.07L216.372 130.07C226.183 130.07 234.173 138.284 234.173 148.405Z" fill="#103662"/>
<path d="M155.887 171.048C141.93 171.4 130.926 182.967 131.243 196.891C131.418 204.483 135.039 211.62 141.051 216.264C144.954 219.251 147.24 223.856 147.275 228.742L148.611 231.555H163.518L165.733 228.742C165.733 223.892 167.984 219.287 171.851 216.331C182.926 207.859 185.07 192.037 176.595 180.926C171.673 174.53 163.974 170.837 155.887 171.048Z" fill="#D4E7FD"/>
<path d="M147.275 228.777V235.212C147.275 240.312 151.389 244.425 156.485 244.425C161.584 244.425 165.697 240.312 165.697 235.212V228.777H147.275Z" fill="#1F2123"/>
<path d="M147.275 228.743H165.733" stroke="#8D8D8D" stroke-width="4" stroke-linecap="round" stroke-linejoin="round"/>
<path d="M147.275 233.839H165.697" stroke="#8D8D8D" stroke-width="4" stroke-linecap="round" stroke-linejoin="round"/>
<path d="M153.39 228.738V221.391C153.39 216.47 151.456 211.723 147.977 208.243C145.342 205.605 143.899 202.054 143.899 198.326C143.899 195.69 146.043 193.582 148.646 193.582C151.282 193.582 153.39 195.726 153.39 198.326V201.071C153.39 202.756 154.761 204.127 156.449 204.127C158.137 204.127 159.508 202.756 159.508 201.071V198.326C159.508 195.69 161.655 193.582 164.255 193.582H164.326C166.962 193.582 169.073 195.726 169.073 198.326C169.073 202.054 167.596 205.64 164.96 208.276C161.477 211.794 159.508 216.505 159.508 221.462L159.544 228.774" stroke="#1F2123" stroke-width="4" stroke-linecap="round" stroke-linejoin="round"/>
</svg>
