<svg width="288" height="384" viewBox="0 0 288 384" fill="none" xmlns="http://www.w3.org/2000/svg">
<path d="M0.0527673 66.8732L0.0527344 317.789L287.195 317.789L287.195 66.8732L0.0527673 66.8732Z" fill="#185294"/>
<path d="M48.54 144.039L238.708 144.039L238.708 1.08482L48.5401 1.08479L48.54 144.039Z" fill="#61ABFF"/>
<path d="M287.21 383.711L287.21 382.789C287.21 303.472 222.798 238.912 143.663 238.912C64.5245 238.912 0.112315 303.472 0.112305 382.789L0.112305 383.711L287.21 383.711Z" fill="#61ABFF"/>
<path d="M120.298 56.7504L120.298 5.88847C120.298 3.19352 122.479 0.998314 125.177 0.998315L162.072 0.998319C164.761 0.99832 166.951 3.1846 166.951 5.88848L166.951 56.7504C166.951 59.4484 164.77 61.6406 162.072 61.6406L125.177 61.6406C122.479 61.6406 120.298 59.4543 120.298 56.7504Z" fill="#1D2939"/>
<path d="M190.277 383.426L190.277 383.122C190.277 357.178 169.209 336.062 143.324 336.062C117.436 336.062 96.3682 357.178 96.3682 383.122L96.3682 383.426L190.277 383.426Z" fill="#1D2939"/>
<path d="M287.249 192.335C287.249 112.873 222.905 48.3817 143.625 48.3817C64.344 48.3817 2.92752e-05 112.873 1.88629e-05 192.335C8.45058e-06 271.798 64.344 336.289 143.625 336.289C222.905 336.289 287.249 271.798 287.249 192.335Z" fill="#D4E7FD"/>
<path d="M142.817 191.93L143.277 191.93C182.731 191.93 214.845 159.742 214.845 120.195C214.845 80.6515 182.731 48.4638 143.277 48.4638L142.817 48.4638L142.817 191.93Z" fill="#2888F6"/>
<path d="M143.607 120.895L0.110361 120.895L0.110352 192.246L143.607 192.246L143.607 120.895Z" fill="#2888F6"/>
<path d="M143.767 263.871L287.264 263.871L287.264 192.517L143.767 192.517L143.767 263.871Z" fill="#2888F6"/>
<path d="M144.431 336.172L143.971 336.172C104.517 336.172 72.4033 303.984 72.4033 264.437C72.4033 224.894 104.517 192.706 143.971 192.706L144.431 192.706L144.431 336.172Z" fill="#2888F6"/>
<path d="M71.0168 170.473L121.765 119.608C133.788 107.558 153.268 107.558 165.291 119.608L216.039 170.473C228.062 182.523 228.062 202.048 216.039 214.098L165.291 264.963C153.268 277.012 133.788 277.012 121.765 264.963L71.0168 214.098C58.9944 202.048 58.9944 182.523 71.0168 170.473Z" fill="#103662"/>
<path d="M143.5 228C123.894 228 108 212.106 108 192.5C108 172.894 123.894 157 143.5 157C163.106 157 179 172.894 179 192.5C179 212.106 163.106 228 143.5 228ZM135.692 209.795L126.205 200.308L124.269 209.99C124.062 211.026 124.975 211.938 126.01 211.731L135.692 209.795ZM159.188 187.27L148.729 176.811L127.811 197.729L138.27 208.188L159.188 187.27ZM164.418 175.765L160.234 171.581C158.501 169.848 155.692 169.848 153.959 171.581L150.821 174.719L161.28 185.178L164.418 182.04C166.151 180.307 166.151 177.498 164.418 175.765Z" fill="white"/>
</svg>
