<svg width="66" height="66" viewBox="0 0 66 66" fill="none" xmlns="http://www.w3.org/2000/svg">
<path d="M5 33C5 17.536 17.536 5 33 5C48.464 5 61 17.536 61 33C61 48.464 48.464 61 33 61C17.536 61 5 48.464 5 33Z" fill="#D4E7FD"/>
<path d="M35.3337 21.333H26.0003C25.3815 21.333 24.788 21.5788 24.3504 22.0164C23.9128 22.454 23.667 23.0475 23.667 23.6663V42.333C23.667 42.9518 23.9128 43.5453 24.3504 43.9829C24.788 44.4205 25.3815 44.6663 26.0003 44.6663H40.0003C40.6192 44.6663 41.2127 44.4205 41.6502 43.9829C42.0878 43.5453 42.3337 42.9518 42.3337 42.333V28.333M35.3337 21.333L42.3337 28.333M35.3337 21.333V28.333H42.3337M37.667 34.1663H28.3337M37.667 38.833H28.3337M30.667 29.4997H28.3337" stroke="#206DC5" stroke-width="2.33333" stroke-linecap="round" stroke-linejoin="round"/>
<path d="M33 56C20.2975 56 10 45.7025 10 33H0C0 51.2254 14.7746 66 33 66V56ZM56 33C56 45.7025 45.7025 56 33 56V66C51.2254 66 66 51.2254 66 33H56ZM33 10C45.7025 10 56 20.2975 56 33H66C66 14.7746 51.2254 0 33 0V10ZM33 0C14.7746 0 0 14.7746 0 33H10C10 20.2975 20.2975 10 33 10V0Z" fill="#EAF3FE"/>
</svg>
