<svg width="66" height="66" viewBox="0 0 66 66" fill="none" xmlns="http://www.w3.org/2000/svg">
<path d="M5 33C5 17.536 17.536 5 33 5C48.464 5 61 17.536 61 33C61 48.464 48.464 61 33 61C17.536 61 5 48.464 5 33Z" fill="#D1FADF"/>
<path d="M44.6667 31.9267V33C44.6653 35.5158 43.8506 37.9638 42.3443 39.9788C40.8379 41.9938 38.7205 43.4679 36.308 44.1812C33.8954 44.8945 31.3168 44.8089 28.9569 43.937C26.597 43.0652 24.5821 41.4538 23.2128 39.3433C21.8435 37.2327 21.1931 34.7361 21.3587 32.2257C21.5242 29.7153 22.4968 27.3257 24.1314 25.4133C25.766 23.5008 27.975 22.168 30.4289 21.6135C32.8829 21.0591 35.4504 21.3127 37.7484 22.3367M44.6667 23.6667L33 35.345L29.5 31.845" stroke="#039855" stroke-width="2.33333" stroke-linecap="round" stroke-linejoin="round"/>
<path d="M33 56C20.2975 56 10 45.7025 10 33H0C0 51.2254 14.7746 66 33 66V56ZM56 33C56 45.7025 45.7025 56 33 56V66C51.2254 66 66 51.2254 66 33H56ZM33 10C45.7025 10 56 20.2975 56 33H66C66 14.7746 51.2254 0 33 0V10ZM33 0C14.7746 0 0 14.7746 0 33H10C10 20.2975 20.2975 10 33 10V0Z" fill="#ECFDF3"/>
</svg>
