<svg width="18" height="20" viewBox="0 0 18 20" fill="none" xmlns="http://www.w3.org/2000/svg">
<path d="M16.0583 19.636H11.0711C10.0567 19.636 9.29593 18.7907 9.29593 17.8609V12.8736C9.29593 11.8593 10.1412 11.0985 11.0711 11.0985H16.0583C17.0726 11.0985 17.8334 11.9438 17.8334 12.8736V17.8609C17.8334 18.7907 17.0726 19.636 16.0583 19.636Z" fill="white"/>
<path d="M6.92911 0.363281H1.94187C0.927514 0.363281 0.166748 1.20858 0.166748 2.1384V7.12564C0.166748 8.14 1.01204 8.90076 1.94187 8.90076H6.92911C7.94346 8.90076 8.70423 8.05547 8.70423 7.12564V2.1384C8.70423 1.12405 7.85893 0.363281 6.92911 0.363281ZM6.92911 6.36488C6.92911 6.78752 6.59099 7.21017 6.08381 7.21017H2.70263C2.27999 7.21017 1.85734 6.87205 1.85734 6.36488V2.89917C1.85734 2.47652 2.19546 2.05387 2.70263 2.05387H6.16834C6.59099 2.05387 7.01364 2.39199 7.01364 2.89917V6.36488H6.92911Z" fill="white"/>
<path d="M6.76005 12.8736C6.76005 12.5355 6.76005 12.2819 6.76005 12.0284C6.76005 11.6902 7.01364 11.4366 7.35176 11.4366C7.68987 11.4366 7.94346 11.6902 7.94346 12.0284C7.94346 12.7891 7.94346 13.5499 7.94346 14.2261C7.94346 14.5642 7.7744 14.7333 7.43629 14.7333C6.67552 14.7333 5.91475 14.7333 5.23852 14.7333C4.9004 14.7333 4.64681 14.4797 4.64681 14.2261C4.64681 13.888 4.9004 13.6344 5.23852 13.6344C5.49211 13.6344 5.74569 13.6344 5.99928 13.6344C5.99928 13.5499 5.91475 13.5499 5.91475 13.4654C5.06946 12.6201 4.13963 11.6902 3.29434 10.8449C3.12528 10.6759 3.04075 10.5068 3.12528 10.2532C3.20981 9.99965 3.37887 9.91512 3.63246 9.91512C3.80152 9.91512 3.97058 9.99965 4.13963 10.0842C4.98493 10.9295 5.83023 11.7748 6.67552 12.6201C6.59099 12.7891 6.67552 12.7891 6.76005 12.8736Z" fill="white"/>
<path d="M12.0009 6.19582C12.4235 6.61846 12.7616 6.95658 13.1843 7.37923C13.6915 7.88641 14.1986 8.39359 14.7058 8.90076C14.9594 9.15435 14.9594 9.49247 14.7904 9.74606C14.5368 9.99965 14.1986 9.99965 13.9451 9.74606C13.6915 9.49247 13.3533 9.15435 13.0998 8.90076C12.5081 8.30906 11.8318 7.63282 11.2401 7.04111C11.1556 7.04111 11.2401 7.12564 11.2401 7.12564C11.2401 7.37923 11.2401 7.63282 11.2401 7.80188C11.2401 8.14 10.9865 8.39359 10.6484 8.39359C10.3103 8.39359 10.0567 8.14 10.0567 7.80188C10.0567 7.04111 10.0567 6.28035 10.0567 5.51958C10.0567 5.26599 10.2258 5.0124 10.5639 5.0124C11.3246 5.0124 12.0854 5.0124 12.8462 5.0124C13.1843 5.0124 13.4379 5.26599 13.4379 5.51958C13.4379 5.8577 13.1843 6.11129 12.9307 6.11129C12.6771 6.11129 12.339 6.11129 12.0854 6.11129C12.0009 6.11129 12.0009 6.19582 12.0009 6.19582Z" fill="white"/>
</svg>
